<svg width="22" height="14" viewBox="0 0 22 14" fill="none" xmlns="http://www.w3.org/2000/svg">
<path d="M18.8399 2.265L10.9999 8.035L3.15986 2.265M2.23486 0.354996C1.96965 0.354996 1.71529 0.460353 1.52776 0.64789C1.34022 0.835426 1.23486 1.08978 1.23486 1.355V12.66C1.23486 12.9252 1.34022 13.1796 1.52776 13.3671C1.71529 13.5546 1.96965 13.66 2.23486 13.66H19.7649C20.0301 13.66 20.2844 13.5546 20.472 13.3671C20.6595 13.1796 20.7649 12.9252 20.7649 12.66V1.34C20.7649 1.07478 20.6595 0.820426 20.472 0.632889C20.2844 0.445353 20.0301 0.339996 19.7649 0.339996H2.23486V0.354996Z" stroke="white" stroke-width="0.666667" stroke-linecap="round" stroke-linejoin="round"/>
</svg>
