<svg width="20" height="20" viewBox="0 0 20 20" fill="none" xmlns="http://www.w3.org/2000/svg">
<path d="M18.3602 13.14C17.3014 13.0093 16.25 12.8241 15.2102 12.585C14.9564 12.5002 14.6849 12.4823 14.4222 12.5331C14.1594 12.5839 13.9142 12.7017 13.7102 12.875C13.4452 13.145 12.6802 13.9 11.8852 14.68C9.03685 13.2798 6.73327 10.9745 5.33523 8.125C6.11023 7.33 6.83523 6.57 7.13023 6.305C7.30357 6.10107 7.42134 5.85585 7.47215 5.59307C7.52295 5.33029 7.50507 5.05885 7.42023 4.805C7.18084 3.76363 6.99559 2.71055 6.86523 1.65C6.85127 1.51495 6.80994 1.38415 6.74378 1.26559C6.67763 1.14703 6.58801 1.04318 6.48041 0.960373C6.37281 0.877568 6.24948 0.817541 6.11793 0.783952C5.98637 0.750364 5.84936 0.743916 5.71523 0.765002H1.45523C1.27939 0.780877 1.11479 0.858279 0.9904 0.98358C0.866013 1.10888 0.789819 1.27405 0.775233 1.45C0.500233 5.295 2.64523 9.41 3.08023 10.2V10.23L3.14023 10.345C4.69741 13.0457 6.93952 15.2878 9.64023 16.845V16.845L9.86023 16.97C10.8602 17.5 14.8352 19.5 18.5502 19.225C18.728 19.2127 18.8955 19.1375 19.0229 19.0129C19.1502 18.8883 19.229 18.7224 19.2452 18.545V14.29C19.2663 14.1559 19.2599 14.0189 19.2263 13.8873C19.1927 13.7558 19.1327 13.6324 19.0499 13.5248C18.9671 13.4172 18.8632 13.3276 18.7446 13.2614C18.6261 13.1953 18.4953 13.154 18.3602 13.14Z" stroke="white" stroke-width="0.666667" stroke-linecap="round" stroke-linejoin="round"/>
</svg>
