<svg width="26" height="22" viewBox="0 0 26 22" fill="none" xmlns="http://www.w3.org/2000/svg">
<path d="M24.2202 0.65332C24.9802 0.65332 25.5536 1.31999 25.2469 2.55999L21.5269 20.0933C21.2669 21.34 20.5136 21.64 19.4736 21.06L10.6002 14.5067C10.5658 14.482 10.5378 14.4494 10.5184 14.4118C10.4991 14.3741 10.489 14.3323 10.489 14.29C10.489 14.2476 10.4991 14.2059 10.5184 14.1682C10.5378 14.1305 10.5658 14.098 10.6002 14.0733L20.8469 4.81999C21.3136 4.40665 20.7469 4.20665 20.1336 4.57999L7.27356 12.6933C7.23455 12.7188 7.19027 12.735 7.14407 12.7408C7.09786 12.7465 7.05095 12.7417 7.00689 12.7267L1.54689 11C0.333556 10.6467 0.333556 9.81332 1.82022 9.21999L23.6669 0.79332C23.8401 0.710201 24.0283 0.662599 24.2202 0.65332V0.65332Z" stroke="white" stroke-width="0.666667" stroke-linecap="round" stroke-linejoin="round"/>
</svg>
