<svg width="30" height="30" viewBox="0 0 30 30" fill="none" xmlns="http://www.w3.org/2000/svg">
<path d="M14.9998 0.666656C12.51 0.669331 10.0637 1.31994 7.90154 2.5545C5.73934 3.78907 3.93566 5.56509 2.66784 7.70796C1.40001 9.85082 0.711685 12.2867 0.670541 14.7762C0.629396 17.2657 1.23685 19.7231 2.43317 21.9067L0.666504 29.3333L8.09317 27.5667C10.0087 28.6174 12.139 29.2164 14.3215 29.3179C16.5039 29.4193 18.6806 29.0205 20.6853 28.1519C22.69 27.2833 24.4696 25.9679 25.8882 24.3062C27.3067 22.6446 28.3266 20.6806 28.8699 18.5645C29.4132 16.4484 29.4656 14.236 29.0231 12.0965C28.5805 9.95702 27.6547 7.94701 26.3164 6.22009C24.9781 4.49317 23.2627 3.09503 21.3014 2.13253C19.34 1.17003 17.1846 0.668632 14.9998 0.666656V0.666656ZM7.83317 7.17999H11.7398C11.9166 7.17999 12.0862 7.25023 12.2112 7.37525C12.3363 7.50028 12.4065 7.66985 12.4065 7.84666C12.3846 8.73572 12.534 9.6207 12.8465 10.4533C12.9811 10.732 13.0107 11.0499 12.9298 11.3487C12.849 11.6475 12.6632 11.9071 12.4065 12.08L11.0398 13.4133C11.6458 14.5967 12.4381 15.6749 13.3865 16.6067C14.3107 17.5705 15.3846 18.3786 16.5665 19L17.8998 17.6333C18.5665 16.9667 18.8732 16.9667 19.5265 17.1933C20.3591 17.5058 21.2441 17.6552 22.1332 17.6333C22.3074 17.6414 22.4723 17.7143 22.5956 17.8376C22.7189 17.9609 22.7917 18.1258 22.7998 18.3V22.2067C22.7917 22.3809 22.7189 22.5457 22.5956 22.6691C22.4723 22.7924 22.3074 22.8652 22.1332 22.8733C18.2116 22.7025 14.4943 21.0767 11.7065 18.3133C8.93875 15.5285 7.31226 11.8094 7.1465 7.88666C7.14809 7.70315 7.22034 7.52732 7.34822 7.39571C7.4761 7.26411 7.64979 7.18684 7.83317 7.17999V7.17999Z" stroke="white" stroke-width="0.666667" stroke-linecap="round" stroke-linejoin="round"/>
</svg>
