<svg width="87" height="81" viewBox="0 0 87 81" fill="none" xmlns="http://www.w3.org/2000/svg">
<path d="M29.736 5.868C29.904 5.988 29.892 6.168 29.7 6.408C29.484 6.72 29.208 6.972 28.872 7.164C28.56 7.332 28.308 7.392 28.116 7.344C27.876 7.272 27.636 7.2 27.396 7.128C27.18 7.056 26.94 6.984 26.676 6.912C26.076 6.96 25.5 7.152 24.948 7.488C24.396 7.8 23.868 8.28 23.364 8.928C22.86 9.552 22.38 10.356 21.924 11.34C21.468 12.3 21.024 13.464 20.592 14.832C19.344 18.888 17.592 21.936 15.336 23.976C13.104 25.992 10.416 27 7.272 27C5.544 27 4.2 26.628 3.24 25.884C2.28 25.14 1.8 24.18 1.8 23.004C1.8 22.164 2.064 21.396 2.592 20.7C3.144 19.98 3.804 19.452 4.572 19.116C4.668 19.116 4.728 19.164 4.752 19.26C4.8 19.356 4.8 19.44 4.752 19.512C4.344 19.824 4.056 20.172 3.888 20.556C3.72 20.94 3.636 21.384 3.636 21.888C3.636 23.112 4.092 24.06 5.004 24.732C5.94 25.404 7.248 25.74 8.928 25.74C10.08 25.74 11.088 25.596 11.952 25.308C12.84 24.996 13.632 24.468 14.328 23.724C15.024 22.98 15.66 21.984 16.236 20.736C16.836 19.464 17.448 17.868 18.072 15.948C18.936 13.236 19.992 11.1 21.24 9.54C22.488 7.956 23.928 6.984 25.56 6.624C23.976 6.216 22.332 5.892 20.628 5.652C18.924 5.412 17.196 5.292 15.444 5.292C14.1 5.292 12.924 5.508 11.916 5.94C10.908 6.348 10.08 6.912 9.432 7.632C8.784 8.328 8.316 9.156 8.028 10.116C7.74 11.076 7.668 12.096 7.812 13.176C7.692 13.416 7.56 13.44 7.416 13.248C7.272 12.048 7.368 10.884 7.704 9.756C8.04 8.628 8.604 7.62 9.396 6.732C10.188 5.844 11.208 5.136 12.456 4.608C13.728 4.08 15.24 3.816 16.992 3.816C19.536 3.816 21.864 4.032 23.976 4.464C26.088 4.872 28.008 5.34 29.736 5.868ZM34.0838 24.732C34.1318 24.684 34.1918 24.684 34.2638 24.732C34.3358 24.78 34.3598 24.852 34.3358 24.948C33.9038 25.572 33.4238 26.076 32.8958 26.46C32.3678 26.82 31.8638 27 31.3838 27C30.8318 27 30.4718 26.616 30.3038 25.848C30.1598 25.056 30.2438 24.12 30.5558 23.04C29.9078 24.072 29.1998 24.96 28.4318 25.704C27.6878 26.424 26.8958 26.856 26.0558 27C25.4798 27 25.0358 26.736 24.7238 26.208C24.4118 25.68 24.2558 25.068 24.2558 24.372C24.2558 23.58 24.4478 22.8 24.8318 22.032C25.2158 21.24 25.7198 20.532 26.3438 19.908C26.9918 19.284 27.6998 18.78 28.4678 18.396C29.2598 17.988 30.0518 17.784 30.8438 17.784C31.6838 17.784 32.3438 17.988 32.8238 18.396C33.0638 18.228 33.3638 18.084 33.7238 17.964C34.1078 17.844 34.4438 17.784 34.7318 17.784C34.8278 17.784 34.8758 17.844 34.8758 17.964C34.3238 18.636 33.8438 19.38 33.4358 20.196C33.0518 20.988 32.7518 21.756 32.5358 22.5C32.3198 23.22 32.1878 23.868 32.1398 24.444C32.0918 25.02 32.1398 25.416 32.2838 25.632C32.4038 25.776 32.6078 25.824 32.8958 25.776C33.1838 25.704 33.5798 25.356 34.0838 24.732ZM27.1718 25.668C27.4598 25.668 27.8078 25.488 28.2158 25.128C28.6478 24.768 29.0918 24.288 29.5478 23.688C30.0038 23.088 30.4478 22.416 30.8798 21.672C31.3358 20.928 31.7318 20.172 32.0678 19.404C31.9718 19.092 31.7438 18.84 31.3838 18.648C31.0478 18.456 30.6518 18.36 30.1958 18.36C29.6438 18.36 29.1278 18.504 28.6478 18.792C28.1678 19.056 27.7478 19.44 27.3878 19.944C27.0518 20.424 26.7758 21.012 26.5598 21.708C26.3678 22.38 26.2718 23.124 26.2718 23.94C26.2718 24.468 26.3558 24.888 26.5238 25.2C26.7158 25.512 26.9318 25.668 27.1718 25.668ZM44.7092 17.964C44.8292 18.012 44.8772 18.084 44.8532 18.18C44.8292 18.252 44.7212 18.312 44.5292 18.36C44.1692 18.36 43.7492 18.372 43.2692 18.396C42.8132 18.42 42.3212 18.456 41.7932 18.504C41.3132 19.68 40.9172 20.832 40.6052 21.96C40.2932 23.064 40.1372 23.964 40.1372 24.66C40.1372 25.476 40.4492 25.884 41.0732 25.884C41.6972 25.884 42.3932 25.344 43.1612 24.264C43.2332 24.216 43.2932 24.216 43.3412 24.264C43.4132 24.312 43.4372 24.396 43.4132 24.516C43.0052 25.188 42.4892 25.776 41.8652 26.28C41.2412 26.76 40.6292 27 40.0292 27C39.4052 27 38.9372 26.856 38.6252 26.568C38.3372 26.256 38.1932 25.836 38.1932 25.308C38.1932 24.612 38.3612 23.652 38.6972 22.428C39.0332 21.204 39.4652 19.956 39.9932 18.684C39.3692 18.756 38.7932 18.852 38.2652 18.972C38.1452 18.948 38.1092 18.888 38.1572 18.792C38.2292 18.696 38.3372 18.6 38.4812 18.504C38.6492 18.384 38.8412 18.288 39.0572 18.216C39.2732 18.12 39.4772 18.072 39.6692 18.072C39.7652 18.072 39.8612 18.072 39.9572 18.072C40.0532 18.072 40.1492 18.06 40.2452 18.036C40.5572 17.34 40.8812 16.668 41.2172 16.02C41.5532 15.372 41.8892 14.784 42.2252 14.256C42.3692 14.088 42.5612 13.944 42.8012 13.824C43.0652 13.68 43.3172 13.572 43.5572 13.5C43.7972 13.428 43.9892 13.392 44.1332 13.392C44.3012 13.368 44.3732 13.404 44.3492 13.5C43.9412 14.124 43.5332 14.82 43.1252 15.588C42.7412 16.356 42.3692 17.16 42.0092 18C42.4652 17.976 42.9212 17.964 43.3772 17.964C43.8572 17.964 44.3012 17.964 44.7092 17.964ZM53.224 17.964C53.344 18.012 53.392 18.084 53.368 18.18C53.344 18.252 53.236 18.312 53.044 18.36C52.684 18.36 52.264 18.372 51.784 18.396C51.328 18.42 50.836 18.456 50.308 18.504C49.828 19.68 49.432 20.832 49.12 21.96C48.808 23.064 48.652 23.964 48.652 24.66C48.652 25.476 48.964 25.884 49.588 25.884C50.212 25.884 50.908 25.344 51.676 24.264C51.748 24.216 51.808 24.216 51.856 24.264C51.928 24.312 51.952 24.396 51.928 24.516C51.52 25.188 51.004 25.776 50.38 26.28C49.756 26.76 49.144 27 48.544 27C47.92 27 47.452 26.856 47.14 26.568C46.852 26.256 46.708 25.836 46.708 25.308C46.708 24.612 46.876 23.652 47.212 22.428C47.548 21.204 47.98 19.956 48.508 18.684C47.884 18.756 47.308 18.852 46.78 18.972C46.66 18.948 46.624 18.888 46.672 18.792C46.744 18.696 46.852 18.6 46.996 18.504C47.164 18.384 47.356 18.288 47.572 18.216C47.788 18.12 47.992 18.072 48.184 18.072C48.28 18.072 48.376 18.072 48.472 18.072C48.568 18.072 48.664 18.06 48.76 18.036C49.072 17.34 49.396 16.668 49.732 16.02C50.068 15.372 50.404 14.784 50.74 14.256C50.884 14.088 51.076 13.944 51.316 13.824C51.58 13.68 51.832 13.572 52.072 13.5C52.312 13.428 52.504 13.392 52.648 13.392C52.816 13.368 52.888 13.404 52.864 13.5C52.456 14.124 52.048 14.82 51.64 15.588C51.256 16.356 50.884 17.16 50.524 18C50.98 17.976 51.436 17.964 51.892 17.964C52.372 17.964 52.816 17.964 53.224 17.964ZM60.1909 17.784C61.0309 17.784 61.6549 18.036 62.0629 18.54C62.4709 19.044 62.6749 19.632 62.6749 20.304C62.6749 21.24 62.4829 22.116 62.0989 22.932C61.7389 23.724 61.2829 24.432 60.7309 25.056C60.2029 25.656 59.6269 26.136 59.0029 26.496C58.3789 26.832 57.8149 27 57.3109 27C56.4949 27 55.8709 26.76 55.4389 26.28C55.0309 25.776 54.8269 25.14 54.8269 24.372C54.8269 23.676 54.9709 22.944 55.2589 22.176C55.5709 21.408 55.9669 20.7 56.4469 20.052C56.9509 19.404 57.5269 18.864 58.1749 18.432C58.8229 18 59.4949 17.784 60.1909 17.784ZM58.2109 25.884C58.9549 25.884 59.5789 25.5 60.0829 24.732C60.6109 23.94 60.8749 22.86 60.8749 21.492C60.8749 20.772 60.7309 20.172 60.4429 19.692C60.1549 19.212 59.7349 18.972 59.1829 18.972C58.4149 18.972 57.7909 19.344 57.3109 20.088C56.8309 20.832 56.5909 21.924 56.5909 23.364C56.5909 24.204 56.7349 24.84 57.0229 25.272C57.3349 25.68 57.7309 25.884 58.2109 25.884ZM71.2721 17.784C72.1121 17.784 72.7361 18.036 73.1441 18.54C73.5521 19.044 73.7561 19.632 73.7561 20.304C73.7561 21.24 73.5641 22.116 73.1801 22.932C72.8201 23.724 72.3641 24.432 71.8121 25.056C71.2841 25.656 70.7081 26.136 70.0841 26.496C69.4601 26.832 68.8961 27 68.3921 27C67.5761 27 66.9521 26.76 66.5201 26.28C66.1121 25.776 65.9081 25.14 65.9081 24.372C65.9081 23.676 66.0521 22.944 66.3401 22.176C66.6521 21.408 67.0481 20.7 67.5281 20.052C68.0321 19.404 68.6081 18.864 69.2561 18.432C69.9041 18 70.5761 17.784 71.2721 17.784ZM69.2921 25.884C70.0361 25.884 70.6601 25.5 71.1641 24.732C71.6921 23.94 71.9561 22.86 71.9561 21.492C71.9561 20.772 71.8121 20.172 71.5241 19.692C71.2361 19.212 70.8161 18.972 70.2641 18.972C69.4961 18.972 68.8721 19.344 68.3921 20.088C67.9121 20.832 67.6721 21.924 67.6721 23.364C67.6721 24.204 67.8161 24.84 68.1041 25.272C68.4161 25.68 68.8121 25.884 69.2921 25.884Z" fill="white"/>
<path d="M45.1117 31.6234C45.365 31.6234 45.5784 31.69 45.7517 31.8234C45.9384 31.9434 46.0784 32.1034 46.1717 32.3034C46.265 32.5034 46.305 32.7234 46.2917 32.9634C46.2917 33.2034 46.2384 33.4434 46.1317 33.6834C46.025 33.7634 45.9584 33.7434 45.9317 33.6234C45.905 33.3567 45.7584 33.1234 45.4917 32.9234C45.225 32.7234 44.7984 32.6234 44.2117 32.6234C43.8517 32.6234 43.5184 32.6567 43.2117 32.7234C42.905 32.79 42.6117 32.9234 42.3317 33.1234C42.065 33.3234 41.7984 33.6167 41.5317 34.0034C41.265 34.3767 40.985 34.8767 40.6917 35.5034C40.3984 36.13 40.085 36.9034 39.7517 37.8234C39.4184 38.7434 39.0517 39.8434 38.6517 41.1234C38.985 41.11 39.325 41.1034 39.6717 41.1034C40.0184 41.1034 40.3584 41.1034 40.6917 41.1034C40.7584 41.13 40.785 41.17 40.7717 41.2234C40.7584 41.2767 40.6984 41.31 40.5917 41.3234C40.285 41.3367 39.9584 41.35 39.6117 41.3634C39.265 41.3634 38.9184 41.3767 38.5717 41.4034C38.545 41.47 38.5184 41.5434 38.4917 41.6234C38.4784 41.69 38.4584 41.7567 38.4317 41.8234C37.9117 43.49 37.3517 44.91 36.7517 46.0834C36.1517 47.2434 35.5317 48.19 34.8917 48.9234C34.2384 49.6567 33.5784 50.19 32.9117 50.5234C32.245 50.8567 31.585 51.0234 30.9317 51.0234C30.4917 51.0234 30.1584 50.9167 29.9317 50.7034C29.6917 50.49 29.5717 50.2167 29.5717 49.8834C29.5717 49.5234 29.6984 49.1967 29.9517 48.9034C29.9917 48.8634 30.0317 48.8567 30.0717 48.8834C30.0984 48.91 30.1117 48.9434 30.1117 48.9834C30.045 49.1167 30.0184 49.2567 30.0317 49.4034C30.045 49.5634 30.105 49.71 30.2117 49.8434C30.305 49.9767 30.4517 50.0834 30.6517 50.1634C30.8517 50.2567 31.1117 50.3034 31.4317 50.3034C32.045 50.3034 32.5917 50.21 33.0717 50.0234C33.5517 49.85 34.0184 49.4634 34.4717 48.8634C34.9117 48.2767 35.3584 47.43 35.8117 46.3234C36.2784 45.2167 36.7984 43.73 37.3717 41.8634L37.4917 41.5034C37.2384 41.53 36.9984 41.5634 36.7717 41.6034C36.545 41.63 36.325 41.6634 36.1117 41.7034C36.045 41.69 36.0317 41.6567 36.0717 41.6034C36.1117 41.55 36.1717 41.4967 36.2517 41.4434C36.345 41.39 36.4517 41.3434 36.5717 41.3034C36.6917 41.25 36.805 41.2167 36.9117 41.2034C37.0184 41.19 37.125 41.1834 37.2317 41.1834C37.3517 41.17 37.4717 41.1567 37.5917 41.1434C38.1384 39.49 38.7117 38.0634 39.3117 36.8634C39.925 35.6634 40.5517 34.6767 41.1917 33.9034C41.8317 33.1167 42.4784 32.5434 43.1317 32.1834C43.7984 31.81 44.4584 31.6234 45.1117 31.6234ZM42.5287 41.0434C42.9954 41.0434 43.3421 41.1834 43.5687 41.4634C43.7954 41.7434 43.9087 42.07 43.9087 42.4434C43.9087 42.9634 43.8021 43.45 43.5887 43.9034C43.3887 44.3434 43.1354 44.7367 42.8287 45.0834C42.5354 45.4167 42.2154 45.6834 41.8687 45.8834C41.5221 46.07 41.2087 46.1634 40.9287 46.1634C40.4754 46.1634 40.1287 46.03 39.8887 45.7634C39.6621 45.4834 39.5487 45.13 39.5487 44.7034C39.5487 44.3167 39.6287 43.91 39.7887 43.4834C39.9621 43.0567 40.1821 42.6634 40.4487 42.3034C40.7287 41.9434 41.0487 41.6434 41.4087 41.4034C41.7687 41.1634 42.1421 41.0434 42.5287 41.0434ZM41.4287 45.5434C41.8421 45.5434 42.1887 45.33 42.4687 44.9034C42.7621 44.4634 42.9087 43.8634 42.9087 43.1034C42.9087 42.7034 42.8287 42.37 42.6687 42.1034C42.5087 41.8367 42.2754 41.7034 41.9687 41.7034C41.5421 41.7034 41.1954 41.91 40.9287 42.3234C40.6621 42.7367 40.5287 43.3434 40.5287 44.1434C40.5287 44.61 40.6087 44.9634 40.7687 45.2034C40.9421 45.43 41.1621 45.5434 41.4287 45.5434ZM46.825 41.6234C46.825 41.8234 46.805 42.05 46.765 42.3034C46.725 42.5567 46.6716 42.8167 46.605 43.0834C46.8716 42.4434 47.165 41.9434 47.485 41.5834C47.805 41.2234 48.1516 41.0434 48.525 41.0434C48.725 41.0434 48.8783 41.09 48.985 41.1834C49.0916 41.2767 49.145 41.3967 49.145 41.5434C49.145 41.6767 49.0916 41.85 48.985 42.0634C48.8916 42.2767 48.8116 42.4234 48.745 42.5034C48.7183 42.5167 48.6916 42.5167 48.665 42.5034C48.6383 42.4767 48.625 42.45 48.625 42.4234C48.625 42.33 48.585 42.25 48.505 42.1834C48.4383 42.1167 48.3316 42.0834 48.185 42.0834C47.7183 42.0834 47.2916 42.4034 46.905 43.0434C46.5316 43.67 46.185 44.5767 45.865 45.7634C45.8516 45.83 45.805 45.89 45.725 45.9434C45.645 45.9834 45.5516 46.0234 45.445 46.0634C45.3516 46.09 45.2516 46.1167 45.145 46.1434C45.0383 46.1567 44.945 46.1634 44.865 46.1634C44.7183 46.1634 44.6783 46.0834 44.745 45.9234C44.865 45.6434 44.9783 45.3434 45.085 45.0234C45.205 44.69 45.3116 44.3567 45.405 44.0234C45.4983 43.69 45.5783 43.37 45.645 43.0634C45.7116 42.7434 45.765 42.45 45.805 42.1834C45.8316 41.9834 45.8383 41.83 45.825 41.7234C45.825 41.6167 45.7716 41.5634 45.665 41.5634C45.5316 41.5634 45.3916 41.6234 45.245 41.7434C45.1116 41.85 44.985 41.99 44.865 42.1634C44.8116 42.2034 44.7583 42.21 44.705 42.1834C44.665 42.1434 44.6583 42.0967 44.685 42.0434C44.765 41.9367 44.8583 41.83 44.965 41.7234C45.085 41.6034 45.2116 41.4967 45.345 41.4034C45.4916 41.2967 45.6383 41.21 45.785 41.1434C45.945 41.0767 46.105 41.0434 46.265 41.0434C46.4783 41.0434 46.625 41.0967 46.705 41.2034C46.785 41.2967 46.825 41.4367 46.825 41.6234Z" fill="white"/>
<path d="M18.884 59.8664C19.564 60.0704 20.1647 60.3764 20.686 60.7844C21.23 61.1924 21.6833 61.6684 22.046 62.2124C22.4313 62.7338 22.726 63.2891 22.93 63.8784C23.134 64.4451 23.236 65.0004 23.236 65.5444C23.236 66.5191 23.0433 67.4144 22.658 68.2304C22.2953 69.0464 21.7287 69.7604 20.958 70.3724C20.21 70.9618 19.2467 71.4264 18.068 71.7664C16.8893 72.0838 15.4953 72.2424 13.886 72.2424C11.3247 72.2424 9.092 71.9024 7.188 71.2224C5.30667 70.5198 3.584 69.5224 2.02 68.2304C1.952 68.1171 1.96333 67.9924 2.054 67.8564C2.16733 67.6978 2.326 67.5618 2.53 67.4484C2.734 67.3351 2.94933 67.2558 3.176 67.2104C3.42533 67.1651 3.652 67.1878 3.856 67.2784C4.28667 67.7091 4.71733 67.9924 5.148 68.1284C5.57867 68.2418 6.11133 68.2418 6.746 68.1284C7.33533 68.0151 7.82267 67.7998 8.208 67.4824C8.616 67.1424 8.97867 66.6211 9.296 65.9184C9.636 65.2158 9.976 64.2978 10.316 63.1644C10.6787 62.0311 11.098 60.6031 11.574 58.8804C12.05 57.1804 12.6393 55.7071 13.342 54.4604C14.0673 53.2138 14.94 52.1598 15.96 51.2984C15.824 51.2984 15.6767 51.2984 15.518 51.2984C15.382 51.2758 15.2233 51.2644 15.042 51.2644C14.294 51.2644 13.5573 51.3664 12.832 51.5704C12.1067 51.7744 11.4153 52.0804 10.758 52.4884C10.1233 52.8964 9.54533 53.3951 9.024 53.9844C8.50267 54.5511 8.08333 55.2084 7.766 55.9564C7.698 56.0018 7.63 56.0131 7.562 55.9904C7.51667 55.9451 7.50533 55.8658 7.528 55.7524C7.8 55.0498 8.208 54.3698 8.752 53.7124C9.296 53.0551 9.95333 52.4771 10.724 51.9784C11.4947 51.4798 12.3673 51.0831 13.342 50.7884C14.3167 50.4938 15.348 50.3464 16.436 50.3464C16.5947 50.3464 16.742 50.3464 16.878 50.3464C17.014 50.3464 17.15 50.3578 17.286 50.3804C17.762 50.1084 18.2607 49.8704 18.782 49.6664C19.3033 49.4398 19.8587 49.2584 20.448 49.1224C20.5613 49.1224 20.618 49.1678 20.618 49.2584C20.618 49.3264 20.5613 49.3831 20.448 49.4284C19.632 49.6324 18.884 49.9724 18.204 50.4484C20.1987 50.6978 21.6833 51.2644 22.658 52.1484C23.6553 53.0324 24.154 54.0638 24.154 55.2424C24.154 55.9224 24.018 56.5458 23.746 57.1124C23.474 57.6791 23.1 58.1664 22.624 58.5744C22.1707 58.9824 21.6153 59.2998 20.958 59.5264C20.3233 59.7531 19.632 59.8664 18.884 59.8664ZM14.634 71.7324C15.654 71.7324 16.5607 71.5964 17.354 71.3244C18.17 71.0298 18.85 70.6444 19.394 70.1684C19.938 69.6698 20.346 69.0918 20.618 68.4344C20.9127 67.7771 21.06 67.0631 21.06 66.2924C21.06 63.3458 19.2467 61.3851 15.62 60.4104C15.552 60.3424 15.5747 60.2404 15.688 60.1044C15.824 59.9458 15.994 59.7984 16.198 59.6624C16.402 59.5038 16.6173 59.3791 16.844 59.2884C17.0707 59.1978 17.252 59.1638 17.388 59.1864C17.6147 59.2771 17.8073 59.3451 17.966 59.3904C18.1473 59.4358 18.374 59.4584 18.646 59.4584C19.054 59.4584 19.4507 59.3678 19.836 59.1864C20.244 59.0051 20.5953 58.7671 20.89 58.4724C21.2073 58.1551 21.4567 57.7811 21.638 57.3504C21.842 56.9198 21.944 56.4551 21.944 55.9564C21.944 54.8684 21.536 53.9051 20.72 53.0664C19.904 52.2278 18.68 51.6838 17.048 51.4344C15.5973 52.9304 14.464 55.2084 13.648 58.2684C13.0587 60.4671 12.4693 62.2464 11.88 63.6064C11.3133 64.9438 10.7127 65.9978 10.078 66.7684C9.466 67.5164 8.80867 68.0264 8.106 68.2984C7.40333 68.5704 6.61 68.7291 5.726 68.7744C6.882 69.6358 8.23067 70.3498 9.772 70.9164C11.3133 71.4604 12.934 71.7324 14.634 71.7324ZM35.6473 70.1004C35.6927 70.0551 35.7493 70.0551 35.8173 70.1004C35.8853 70.1458 35.908 70.2138 35.8853 70.3044C35.4773 70.8938 35.024 71.3698 34.5253 71.7324C34.0267 72.0724 33.5507 72.2424 33.0973 72.2424C32.576 72.2424 32.236 71.8798 32.0773 71.1544C31.9413 70.4064 32.0207 69.5224 32.3153 68.5024C31.7033 69.4771 31.0347 70.3158 30.3093 71.0184C29.6067 71.6984 28.8587 72.1064 28.0653 72.2424C27.5213 72.2424 27.102 71.9931 26.8073 71.4944C26.5127 70.9958 26.3653 70.4178 26.3653 69.7604C26.3653 69.0124 26.5467 68.2758 26.9093 67.5504C27.272 66.8024 27.748 66.1338 28.3373 65.5444C28.9493 64.9551 29.618 64.4791 30.3433 64.1164C31.0913 63.7311 31.8393 63.5384 32.5873 63.5384C33.3807 63.5384 34.004 63.7311 34.4573 64.1164C34.684 63.9578 34.9673 63.8218 35.3073 63.7084C35.67 63.5951 35.9873 63.5384 36.2593 63.5384C36.35 63.5384 36.3953 63.5951 36.3953 63.7084C35.874 64.3431 35.4207 65.0458 35.0353 65.8164C34.6727 66.5644 34.3893 67.2898 34.1853 67.9924C33.9813 68.6724 33.8567 69.2844 33.8113 69.8284C33.766 70.3724 33.8113 70.7464 33.9473 70.9504C34.0607 71.0864 34.2533 71.1318 34.5253 71.0864C34.7973 71.0184 35.1713 70.6898 35.6473 70.1004ZM29.1193 70.9844C29.3913 70.9844 29.72 70.8144 30.1053 70.4744C30.5133 70.1344 30.9327 69.6811 31.3633 69.1144C31.794 68.5478 32.2133 67.9131 32.6213 67.2104C33.052 66.5078 33.426 65.7938 33.7433 65.0684C33.6527 64.7738 33.4373 64.5358 33.0973 64.3544C32.78 64.1731 32.406 64.0824 31.9753 64.0824C31.454 64.0824 30.9667 64.2184 30.5133 64.4904C30.06 64.7398 29.6633 65.1024 29.3233 65.5784C29.006 66.0318 28.7453 66.5871 28.5413 67.2444C28.36 67.8791 28.2693 68.5818 28.2693 69.3524C28.2693 69.8511 28.3487 70.2478 28.5073 70.5424C28.6887 70.8371 28.8927 70.9844 29.1193 70.9844ZM42.7584 64.5244C42.7584 64.8644 42.7244 65.2498 42.6564 65.6804C42.5884 66.1111 42.4977 66.5531 42.3844 67.0064C42.8377 65.9184 43.3364 65.0684 43.8804 64.4564C44.4244 63.8444 45.0137 63.5384 45.6484 63.5384C45.9884 63.5384 46.249 63.6178 46.4304 63.7764C46.6117 63.9351 46.7024 64.1391 46.7024 64.3884C46.7024 64.6151 46.6117 64.9098 46.4304 65.2724C46.2717 65.6351 46.1357 65.8844 46.0224 66.0204C45.977 66.0431 45.9317 66.0431 45.8864 66.0204C45.841 65.9751 45.8184 65.9298 45.8184 65.8844C45.8184 65.7258 45.7504 65.5898 45.6144 65.4764C45.501 65.3631 45.3197 65.3064 45.0704 65.3064C44.277 65.3064 43.5517 65.8504 42.8944 66.9384C42.2597 68.0038 41.6704 69.5451 41.1264 71.5624C41.1037 71.6758 41.0244 71.7778 40.8884 71.8684C40.7524 71.9364 40.5937 72.0044 40.4124 72.0724C40.2537 72.1178 40.0837 72.1631 39.9024 72.2084C39.721 72.2311 39.5624 72.2424 39.4264 72.2424C39.177 72.2424 39.109 72.1064 39.2224 71.8344C39.4264 71.3584 39.619 70.8484 39.8004 70.3044C40.0044 69.7378 40.1857 69.1711 40.3444 68.6044C40.503 68.0378 40.639 67.4938 40.7524 66.9724C40.8657 66.4284 40.9564 65.9298 41.0244 65.4764C41.0697 65.1364 41.081 64.8758 41.0584 64.6944C41.0584 64.5131 40.9677 64.4224 40.7864 64.4224C40.5597 64.4224 40.3217 64.5244 40.0724 64.7284C39.8457 64.9098 39.6304 65.1478 39.4264 65.4424C39.3357 65.5104 39.245 65.5218 39.1544 65.4764C39.0864 65.4084 39.075 65.3291 39.1204 65.2384C39.2564 65.0571 39.415 64.8758 39.5964 64.6944C39.8004 64.4904 40.0157 64.3091 40.2424 64.1504C40.4917 63.9691 40.741 63.8218 40.9904 63.7084C41.2624 63.5951 41.5344 63.5384 41.8064 63.5384C42.169 63.5384 42.4184 63.6291 42.5544 63.8104C42.6904 63.9691 42.7584 64.2071 42.7584 64.5244ZM64.9235 46.5384C65.3541 46.5384 65.7168 46.6404 66.0115 46.8444C66.3061 47.0258 66.5328 47.2751 66.6915 47.5924C66.8501 47.9098 66.9408 48.2724 66.9635 48.6804C66.9861 49.0658 66.9521 49.4738 66.8615 49.9044C66.7255 49.9951 66.6235 49.9838 66.5555 49.8704C66.4875 49.4171 66.2495 49.0318 65.8415 48.7144C65.4335 48.3744 64.8328 48.2044 64.0395 48.2044C62.7701 48.2044 61.5915 48.5218 60.5035 49.1564C59.4155 49.7911 58.3841 50.8224 57.4095 52.2504C56.4575 53.6558 55.5395 55.4918 54.6555 57.7584C53.7941 60.0024 52.9441 62.7451 52.1055 65.9864C52.2641 65.7371 52.4795 65.4764 52.7515 65.2044C53.0461 64.9098 53.3748 64.6378 53.7375 64.3884C54.1001 64.1391 54.4741 63.9351 54.8595 63.7764C55.2675 63.6178 55.6641 63.5384 56.0495 63.5384C56.5255 63.5384 56.9108 63.7538 57.2055 64.1844C57.5001 64.6151 57.6475 65.1251 57.6475 65.7144C57.6475 66.5758 57.4321 67.4031 57.0015 68.1964C56.5708 68.9671 56.0268 69.6584 55.3695 70.2704C54.7121 70.8598 53.9981 71.3358 53.2275 71.6984C52.4568 72.0611 51.7315 72.2424 51.0515 72.2424C50.4848 72.2424 50.0881 72.1064 49.8615 71.8344C49.6348 71.5624 49.5215 71.1771 49.5215 70.6784C49.5215 70.0438 49.6008 69.2958 49.7595 68.4344C49.9408 67.5504 50.1788 66.6211 50.4735 65.6464C50.7681 64.6491 51.1195 63.6178 51.5275 62.5524C51.9581 61.4644 52.4115 60.3991 52.8875 59.3564C54.8141 55.2084 56.7635 52.0351 58.7355 49.8364C60.7301 47.6378 62.7928 46.5384 64.9235 46.5384ZM54.8935 64.6604C54.5535 64.6604 54.1908 64.7738 53.8055 65.0004C53.4201 65.2044 53.0575 65.5331 52.7175 65.9864C52.3775 66.4171 52.0828 66.9611 51.8335 67.6184C51.6068 68.2758 51.4595 69.0351 51.3915 69.8964C51.3461 70.3951 51.4028 70.7464 51.5615 70.9504C51.7428 71.1544 52.0035 71.2564 52.3435 71.2564C52.7741 71.2564 53.2048 71.1204 53.6355 70.8484C54.0661 70.5538 54.4515 70.1798 54.7915 69.7264C55.1541 69.2504 55.4375 68.7291 55.6415 68.1624C55.8681 67.5958 55.9815 67.0291 55.9815 66.4624C55.9815 65.8051 55.8795 65.3404 55.6755 65.0684C55.4715 64.7964 55.2108 64.6604 54.8935 64.6604ZM65.0029 62.0764C64.9349 62.1444 64.8555 62.1444 64.7649 62.0764C64.6969 62.0084 64.6402 61.9178 64.5949 61.8044C64.5495 61.6684 64.5269 61.5324 64.5269 61.3964C64.5269 61.2378 64.5609 61.1018 64.6289 60.9884C64.8782 60.6711 65.2409 60.2744 65.7169 59.7984C66.2155 59.2998 66.7255 58.8804 67.2469 58.5404C67.2922 58.5178 67.3489 58.5404 67.4169 58.6084C67.4849 58.6538 67.5075 58.6991 67.4849 58.7444C67.0089 59.1751 66.5555 59.6964 66.1249 60.3084C65.6942 60.8978 65.3202 61.4871 65.0029 62.0764ZM61.3649 65.9184C61.2969 65.9638 61.2402 65.9524 61.1949 65.8844C61.1495 65.7938 61.1382 65.7144 61.1609 65.6464C61.9995 64.9664 63.1669 64.2638 64.6629 63.5384C64.8442 63.5384 64.9349 63.6404 64.9349 63.8444C64.6402 64.3658 64.3455 64.9324 64.0509 65.5444C63.7789 66.1564 63.5295 66.7684 63.3029 67.3804C63.0989 67.9698 62.9289 68.5478 62.7929 69.1144C62.6569 69.6584 62.5889 70.1118 62.5889 70.4744C62.5889 70.9278 62.7475 71.1544 63.0649 71.1544C63.3142 71.1544 63.5522 71.0524 63.7789 70.8484C64.0282 70.6218 64.3115 70.3384 64.6289 69.9984C64.6742 69.9531 64.7309 69.9644 64.7989 70.0324C64.8669 70.0778 64.8782 70.1571 64.8329 70.2704C64.3342 70.8598 63.8355 71.3358 63.3369 71.6984C62.8609 72.0611 62.3962 72.2424 61.9429 72.2424C61.1495 72.2424 60.7529 71.8684 60.7529 71.1204C60.7529 70.7124 60.8095 70.2364 60.9229 69.6924C61.0589 69.1258 61.2289 68.5591 61.4329 67.9924C61.6595 67.4031 61.8975 66.8364 62.1469 66.2924C62.4189 65.7258 62.6909 65.2384 62.9629 64.8304C62.7135 64.9664 62.4302 65.1364 62.1129 65.3404C61.8182 65.5444 61.5689 65.7371 61.3649 65.9184ZM74.9994 65.2384C74.9994 66.5304 73.2881 67.4144 69.8654 67.8904C69.8427 68.1171 69.8201 68.3438 69.7974 68.5704C69.7974 68.7971 69.7974 69.0351 69.7974 69.2844C69.7974 69.8738 69.9334 70.3271 70.2054 70.6444C70.4774 70.9618 70.9081 71.1204 71.4974 71.1204C71.9281 71.1204 72.3701 70.9958 72.8234 70.7464C73.2767 70.4971 73.6394 70.1798 73.9114 69.7944C74.0021 69.7491 74.0701 69.7718 74.1154 69.8624C74.1607 69.9304 74.1721 70.0098 74.1494 70.1004C73.6961 70.6898 73.1181 71.1998 72.4154 71.6304C71.7354 72.0384 70.9987 72.2424 70.2054 72.2424C69.4121 72.2424 68.8341 72.0498 68.4714 71.6644C68.1314 71.2564 67.9614 70.6898 67.9614 69.9644C67.9614 69.2618 68.1087 68.5364 68.4034 67.7884C68.6981 67.0178 69.0721 66.3151 69.5254 65.6804C70.0014 65.0458 70.5341 64.5358 71.1234 64.1504C71.7354 63.7424 72.3474 63.5384 72.9594 63.5384C73.5714 63.5384 74.0587 63.7198 74.4214 64.0824C74.8067 64.4224 74.9994 64.8078 74.9994 65.2384ZM72.0414 64.4224C71.5201 64.4224 71.0667 64.6718 70.6814 65.1704C70.3187 65.6464 70.0694 66.3944 69.9334 67.4144C71.0214 67.3011 71.8261 67.0971 72.3474 66.8024C72.8687 66.4851 73.1294 66.0998 73.1294 65.6464C73.1294 65.3064 73.0274 65.0231 72.8234 64.7964C72.6194 64.5471 72.3587 64.4224 72.0414 64.4224Z" fill="white"/>
</svg>
