<svg width="73" height="114" viewBox="0 0 73 114" fill="none" xmlns="http://www.w3.org/2000/svg">
<g filter="url(#filter0_b_506_1196)">
<path d="M26.3986 53.4805C26.3986 56.026 26.1417 61.1697 25.1142 61.3803C23.8298 61.6437 15.8024 74.8102 22.5454 91.9266" stroke="url(#paint0_linear_506_1196)" stroke-width="0.5"/>
<path d="M24.1512 39.2607C24.0442 43.4739 23.1879 52.4798 20.6191 54.7971" stroke="url(#paint1_linear_506_1196)" stroke-width="0.5"/>
<path d="M22.8662 34.5207C18.4779 43.825 10.536 62.1703 13.8754 61.117" stroke="url(#paint2_linear_506_1196)" stroke-width="0.5"/>
<path d="M42.1328 11.8744C44.4875 11.1722 50.4172 10.0311 55.2979 11.0844C56.9034 11.1722 60.1143 11.0317 60.1143 9.76776" stroke="url(#paint3_linear_506_1196)" stroke-width="0.5"/>
<path d="M24.4724 6.08112C28.9678 4.41336 39.1145 1.92051 43.7383 5.29113M26.0779 50.3205C26.1849 52.7783 25.9495 57.9571 24.1513 59.0104C19.763 65.1547 11.1147 79.2868 11.6285 86.66M11.6285 86.66C12.2707 91.0488 12.2707 100.774 7.13311 104.566M11.6285 86.66C9.38077 88.9422 4.11478 93.4539 1.03223 93.2432" stroke="url(#paint4_linear_506_1196)" stroke-width="0.5"/>
<path d="M48.5548 25.5675C47.6986 22.4076 43.4172 15.561 33.1421 13.4544M26.399 11.8744C31.0014 15.8243 40.142 24.4089 39.8851 27.1475M15.8027 16.351C20.9403 15.9999 32.5641 16.983 37.9586 23.7242" stroke="url(#paint5_linear_506_1196)" stroke-width="0.5"/>
<path d="M29.2886 9.76776C31.8574 10.7333 38.0225 12.5064 42.1325 11.8744C45.1295 12.05 52.2793 13.6124 56.9031 18.4576" stroke="url(#paint6_linear_506_1196)" stroke-width="0.5"/>
<path d="M51.7656 5.29104C53.7993 5.72992 58.316 7.18701 60.1142 9.50431" stroke="url(#paint7_linear_506_1196)" stroke-width="0.5"/>
<path d="M29.2886 9.76776C33.0347 12.8399 40.3986 20.6169 39.8848 27.1475" stroke="url(#paint8_linear_506_1196)" stroke-width="0.5"/>
<path d="M35.7109 33.994C36.6742 38.2951 38.3439 46.7392 37.3164 46.1072" stroke="url(#paint9_linear_506_1196)" stroke-width="0.5"/>
<path d="M58.1877 3.44777L51.7657 5.29108C46.2 4.85219 33.7842 5.23841 28.6466 10.2943C26.5059 12.0499 20.7476 15.7189 14.8394 16.3509" stroke="url(#paint10_linear_506_1196)" stroke-width="0.5"/>
<path d="M34.7473 39.2607C32.6067 35.5741 27.2336 27.0949 22.8667 22.6709C20.9401 19.8621 16.252 14.8237 12.9126 17.141" stroke="url(#paint11_linear_506_1196)" stroke-width="0.5"/>
<path d="M10.986 17.1409C12.4845 17.0531 15.8667 16.2982 17.408 13.9809C20.1909 7.39767 32.2428 -3.9255 58.1876 3.44773C57.8665 3.1844 72.3159 3.71107 71.9948 2.92108C71.6737 2.13109 71.6737 8.97767 60.1142 9.50432C60.4353 14.2443 56.9674 24.6194 40.5271 28.2007C40.5271 27.9374 31.8575 18.1942 19.3346 16.8776C19.0135 16.8776 18.0502 17.4042 19.3346 17.9309C20.8331 19.3353 23.83 22.1968 23.83 22.4075C23.83 22.6708 37.6372 28.7274 38.2794 35.8373C37.9583 35.8373 40.5271 48.7404 40.5271 48.4771C40.5271 48.2138 36.3528 49.0038 35.0685 39.7872C35.0685 39.5239 23.1878 34.5206 22.2245 23.4608C21.9034 23.1975 17.7291 16.8776 16.7658 17.9309C16.7658 18.4575 17.3438 20.5115 19.6557 24.5141C19.6557 24.7774 42.4537 79.0233 9.05944 112.993C9.05944 113.256 9.05944 106.146 5.84845 104.303C5.84845 104.04 -8.92209 95.3498 12.5915 71.9134C12.2704 71.6501 21.5824 57.167 20.6191 54.797C20.3622 54.797 15.1603 60.2392 12.5915 62.9602C12.0564 58.7716 12.2704 48.2729 17.408 39.7872C17.408 39.2606 19.9767 16.3509 10.986 17.1409Z" stroke="url(#paint12_linear_506_1196)"/>
<path d="M36.0317 31.0974L35.0684 39.7872" stroke="url(#paint13_linear_506_1196)" stroke-width="0.5"/>
<path d="M35.0682 39.7873C34.1049 36.1884 31.215 28.0954 27.3618 24.5141" stroke="url(#paint14_linear_506_1196)" stroke-width="0.5"/>
</g>
<defs>
<filter id="filter0_b_506_1196" x="-0.597168" y="-0.456657" width="74.0977" height="114.8" filterUnits="userSpaceOnUse" color-interpolation-filters="sRGB">
<feFlood flood-opacity="0" result="BackgroundImageFix"/>
<feGaussianBlur in="BackgroundImageFix" stdDeviation="0.5"/>
<feComposite in2="SourceAlpha" operator="in" result="effect1_backgroundBlur_506_1196"/>
<feBlend mode="normal" in="SourceGraphic" in2="effect1_backgroundBlur_506_1196" result="shape"/>
</filter>
<linearGradient id="paint0_linear_506_1196" x1="23.1397" y1="53.4805" x2="23.1397" y2="91.9266" gradientUnits="userSpaceOnUse">
<stop stop-color="#FA0034"/>
<stop offset="1" stop-color="#FBB500"/>
</linearGradient>
<linearGradient id="paint1_linear_506_1196" x1="22.3852" y1="39.2607" x2="22.3852" y2="54.7971" gradientUnits="userSpaceOnUse">
<stop stop-color="#FA0034"/>
<stop offset="1" stop-color="#FBB500"/>
</linearGradient>
<linearGradient id="paint2_linear_506_1196" x1="17.9717" y1="34.5207" x2="17.9717" y2="61.1605" gradientUnits="userSpaceOnUse">
<stop stop-color="#FA0034"/>
<stop offset="1" stop-color="#FBB500"/>
</linearGradient>
<linearGradient id="paint3_linear_506_1196" x1="51.1236" y1="9.76776" x2="51.1236" y2="11.8744" gradientUnits="userSpaceOnUse">
<stop stop-color="#FA0034"/>
<stop offset="1" stop-color="#FBB500"/>
</linearGradient>
<linearGradient id="paint4_linear_506_1196" x1="22.3853" y1="3.61846" x2="22.3853" y2="104.566" gradientUnits="userSpaceOnUse">
<stop stop-color="#FA0034"/>
<stop offset="1" stop-color="#FBB500"/>
</linearGradient>
<linearGradient id="paint5_linear_506_1196" x1="32.1788" y1="11.8744" x2="32.1788" y2="27.1475" gradientUnits="userSpaceOnUse">
<stop stop-color="#FA0034"/>
<stop offset="1" stop-color="#FBB500"/>
</linearGradient>
<linearGradient id="paint6_linear_506_1196" x1="43.0958" y1="9.76776" x2="43.0958" y2="18.4576" gradientUnits="userSpaceOnUse">
<stop stop-color="#FA0034"/>
<stop offset="1" stop-color="#FBB500"/>
</linearGradient>
<linearGradient id="paint7_linear_506_1196" x1="55.9399" y1="5.29104" x2="55.9399" y2="9.50431" gradientUnits="userSpaceOnUse">
<stop stop-color="#FA0034"/>
<stop offset="1" stop-color="#FBB500"/>
</linearGradient>
<linearGradient id="paint8_linear_506_1196" x1="34.5995" y1="9.76776" x2="34.5995" y2="27.1475" gradientUnits="userSpaceOnUse">
<stop stop-color="#FA0034"/>
<stop offset="1" stop-color="#FBB500"/>
</linearGradient>
<linearGradient id="paint9_linear_506_1196" x1="36.6751" y1="33.994" x2="36.6751" y2="46.1408" gradientUnits="userSpaceOnUse">
<stop stop-color="#FA0034"/>
<stop offset="1" stop-color="#FBB500"/>
</linearGradient>
<linearGradient id="paint10_linear_506_1196" x1="36.5135" y1="3.44777" x2="36.5135" y2="16.3509" gradientUnits="userSpaceOnUse">
<stop stop-color="#FA0034"/>
<stop offset="1" stop-color="#FBB500"/>
</linearGradient>
<linearGradient id="paint11_linear_506_1196" x1="23.83" y1="16.5487" x2="23.83" y2="39.2607" gradientUnits="userSpaceOnUse">
<stop stop-color="#FA0034"/>
<stop offset="1" stop-color="#FBB500"/>
</linearGradient>
<linearGradient id="paint12_linear_506_1196" x1="36.4517" y1="1.04216" x2="36.4517" y2="113" gradientUnits="userSpaceOnUse">
<stop stop-color="#FA0034"/>
<stop offset="1" stop-color="#FBB500"/>
</linearGradient>
<linearGradient id="paint13_linear_506_1196" x1="35.55" y1="31.0974" x2="35.55" y2="39.7872" gradientUnits="userSpaceOnUse">
<stop stop-color="#FA0034"/>
<stop offset="1" stop-color="#FBB500"/>
</linearGradient>
<linearGradient id="paint14_linear_506_1196" x1="31.215" y1="24.5141" x2="31.215" y2="39.7873" gradientUnits="userSpaceOnUse">
<stop stop-color="#FA0034"/>
<stop offset="1" stop-color="#FBB500"/>
</linearGradient>
</defs>
</svg>
