<svg width="73" height="114" viewBox="0 0 73 114" fill="none" xmlns="http://www.w3.org/2000/svg">
<g filter="url(#filter0_b_506_1147)">
<path d="M46.6014 53.4805C46.6014 56.026 46.8583 61.1697 47.8858 61.3803C49.1702 61.6437 57.1976 74.8102 50.4546 91.9266" stroke="url(#paint0_linear_506_1147)" stroke-width="0.5"/>
<path d="M48.8488 39.2607C48.9558 43.4739 49.8121 52.4798 52.3809 54.7971" stroke="url(#paint1_linear_506_1147)" stroke-width="0.5"/>
<path d="M50.1338 34.5207C54.5221 43.825 62.464 62.1703 59.1246 61.117" stroke="url(#paint2_linear_506_1147)" stroke-width="0.5"/>
<path d="M30.8672 11.8744C28.5125 11.1722 22.5828 10.0311 17.7021 11.0844C16.0966 11.1722 12.8857 11.0317 12.8857 9.76776" stroke="url(#paint3_linear_506_1147)" stroke-width="0.5"/>
<path d="M48.5276 6.08112C44.0322 4.41336 33.8855 1.92051 29.2617 5.29113M46.9221 50.3205C46.8151 52.7783 47.0505 57.9571 48.8487 59.0104C53.237 65.1547 61.8853 79.2868 61.3715 86.66M61.3715 86.66C60.7293 91.0488 60.7293 100.774 65.8669 104.566M61.3715 86.66C63.6192 88.9422 68.8852 93.4539 71.9678 93.2432" stroke="url(#paint4_linear_506_1147)" stroke-width="0.5"/>
<path d="M24.4452 25.5675C25.3014 22.4076 29.5828 15.561 39.8579 13.4544M46.601 11.8744C41.9986 15.8243 32.858 24.4089 33.1149 27.1475M57.1973 16.351C52.0597 15.9999 40.4359 16.983 35.0414 23.7242" stroke="url(#paint5_linear_506_1147)" stroke-width="0.5"/>
<path d="M43.7114 9.76776C41.1426 10.7333 34.9775 12.5064 30.8675 11.8744C27.8705 12.05 20.7207 13.6124 16.0969 18.4576" stroke="url(#paint6_linear_506_1147)" stroke-width="0.5"/>
<path d="M21.2344 5.29104C19.2007 5.72992 14.684 7.18701 12.8858 9.50431" stroke="url(#paint7_linear_506_1147)" stroke-width="0.5"/>
<path d="M43.7114 9.76776C39.9653 12.8399 32.6014 20.6169 33.1152 27.1475" stroke="url(#paint8_linear_506_1147)" stroke-width="0.5"/>
<path d="M37.2891 33.994C36.3258 38.2951 34.6561 46.7392 35.6836 46.1072" stroke="url(#paint9_linear_506_1147)" stroke-width="0.5"/>
<path d="M14.8123 3.44777L21.2343 5.29108C26.8 4.85219 39.2158 5.23841 44.3534 10.2943C46.4941 12.0499 52.2524 15.7189 58.1606 16.3509" stroke="url(#paint10_linear_506_1147)" stroke-width="0.5"/>
<path d="M38.2527 39.2607C40.3933 35.5741 45.7664 27.0949 50.1333 22.6709C52.0599 19.8621 56.748 14.8237 60.0874 17.141" stroke="url(#paint11_linear_506_1147)" stroke-width="0.5"/>
<path d="M62.014 17.1409C60.5155 17.0531 57.1333 16.2982 55.592 13.9809C52.8091 7.39767 40.7572 -3.9255 14.8124 3.44773C15.1335 3.1844 0.684084 3.71107 1.00518 2.92108C1.32628 2.13109 1.32628 8.97767 12.8858 9.50432C12.5647 14.2443 16.0326 24.6194 32.4729 28.2007C32.4729 27.9374 41.1425 18.1942 53.6654 16.8776C53.9865 16.8776 54.9498 17.4042 53.6654 17.9309C52.1669 19.3353 49.17 22.1968 49.17 22.4075C49.17 22.6708 35.3628 28.7274 34.7206 35.8373C35.0417 35.8373 32.4729 48.7404 32.4729 48.4771C32.4729 48.2138 36.6472 49.0038 37.9315 39.7872C37.9315 39.5239 49.8122 34.5206 50.7755 23.4608C51.0966 23.1975 55.2709 16.8776 56.2342 17.9309C56.2342 18.4575 55.6562 20.5115 53.3443 24.5141C53.3443 24.7774 30.5463 79.0233 63.9406 112.993C63.9406 113.256 63.9406 106.146 67.1515 104.303C67.1515 104.04 81.9221 95.3498 60.4085 71.9134C60.7296 71.6501 51.4176 57.167 52.3809 54.797C52.6378 54.797 57.8397 60.2392 60.4085 62.9602C60.9436 58.7716 60.7296 48.2729 55.592 39.7872C55.592 39.2606 53.0233 16.3509 62.014 17.1409Z" stroke="url(#paint12_linear_506_1147)"/>
<path d="M36.9683 31.0974L37.9316 39.7872" stroke="url(#paint13_linear_506_1147)" stroke-width="0.5"/>
<path d="M37.9318 39.7873C38.8951 36.1884 41.785 28.0954 45.6382 24.5141" stroke="url(#paint14_linear_506_1147)" stroke-width="0.5"/>
</g>
<defs>
<filter id="filter0_b_506_1147" x="-0.500488" y="-0.456657" width="74.0977" height="114.8" filterUnits="userSpaceOnUse" color-interpolation-filters="sRGB">
<feFlood flood-opacity="0" result="BackgroundImageFix"/>
<feGaussianBlur in="BackgroundImageFix" stdDeviation="0.5"/>
<feComposite in2="SourceAlpha" operator="in" result="effect1_backgroundBlur_506_1147"/>
<feBlend mode="normal" in="SourceGraphic" in2="effect1_backgroundBlur_506_1147" result="shape"/>
</filter>
<linearGradient id="paint0_linear_506_1147" x1="49.8603" y1="53.4805" x2="49.8603" y2="91.9266" gradientUnits="userSpaceOnUse">
<stop stop-color="#FA0034"/>
<stop offset="1" stop-color="#FBB500"/>
</linearGradient>
<linearGradient id="paint1_linear_506_1147" x1="50.6148" y1="39.2607" x2="50.6148" y2="54.7971" gradientUnits="userSpaceOnUse">
<stop stop-color="#FA0034"/>
<stop offset="1" stop-color="#FBB500"/>
</linearGradient>
<linearGradient id="paint2_linear_506_1147" x1="55.0283" y1="34.5207" x2="55.0283" y2="61.1605" gradientUnits="userSpaceOnUse">
<stop stop-color="#FA0034"/>
<stop offset="1" stop-color="#FBB500"/>
</linearGradient>
<linearGradient id="paint3_linear_506_1147" x1="21.8764" y1="9.76776" x2="21.8764" y2="11.8744" gradientUnits="userSpaceOnUse">
<stop stop-color="#FA0034"/>
<stop offset="1" stop-color="#FBB500"/>
</linearGradient>
<linearGradient id="paint4_linear_506_1147" x1="50.6147" y1="3.61846" x2="50.6147" y2="104.566" gradientUnits="userSpaceOnUse">
<stop stop-color="#FA0034"/>
<stop offset="1" stop-color="#FBB500"/>
</linearGradient>
<linearGradient id="paint5_linear_506_1147" x1="40.8212" y1="11.8744" x2="40.8212" y2="27.1475" gradientUnits="userSpaceOnUse">
<stop stop-color="#FA0034"/>
<stop offset="1" stop-color="#FBB500"/>
</linearGradient>
<linearGradient id="paint6_linear_506_1147" x1="29.9042" y1="9.76776" x2="29.9042" y2="18.4576" gradientUnits="userSpaceOnUse">
<stop stop-color="#FA0034"/>
<stop offset="1" stop-color="#FBB500"/>
</linearGradient>
<linearGradient id="paint7_linear_506_1147" x1="17.0601" y1="5.29104" x2="17.0601" y2="9.50431" gradientUnits="userSpaceOnUse">
<stop stop-color="#FA0034"/>
<stop offset="1" stop-color="#FBB500"/>
</linearGradient>
<linearGradient id="paint8_linear_506_1147" x1="38.4005" y1="9.76776" x2="38.4005" y2="27.1475" gradientUnits="userSpaceOnUse">
<stop stop-color="#FA0034"/>
<stop offset="1" stop-color="#FBB500"/>
</linearGradient>
<linearGradient id="paint9_linear_506_1147" x1="36.3249" y1="33.994" x2="36.3249" y2="46.1408" gradientUnits="userSpaceOnUse">
<stop stop-color="#FA0034"/>
<stop offset="1" stop-color="#FBB500"/>
</linearGradient>
<linearGradient id="paint10_linear_506_1147" x1="36.4865" y1="3.44777" x2="36.4865" y2="16.3509" gradientUnits="userSpaceOnUse">
<stop stop-color="#FA0034"/>
<stop offset="1" stop-color="#FBB500"/>
</linearGradient>
<linearGradient id="paint11_linear_506_1147" x1="49.17" y1="16.5487" x2="49.17" y2="39.2607" gradientUnits="userSpaceOnUse">
<stop stop-color="#FA0034"/>
<stop offset="1" stop-color="#FBB500"/>
</linearGradient>
<linearGradient id="paint12_linear_506_1147" x1="36.5483" y1="1.04216" x2="36.5483" y2="113" gradientUnits="userSpaceOnUse">
<stop stop-color="#FA0034"/>
<stop offset="1" stop-color="#FBB500"/>
</linearGradient>
<linearGradient id="paint13_linear_506_1147" x1="37.45" y1="31.0974" x2="37.45" y2="39.7872" gradientUnits="userSpaceOnUse">
<stop stop-color="#FA0034"/>
<stop offset="1" stop-color="#FBB500"/>
</linearGradient>
<linearGradient id="paint14_linear_506_1147" x1="41.785" y1="24.5141" x2="41.785" y2="39.7873" gradientUnits="userSpaceOnUse">
<stop stop-color="#FA0034"/>
<stop offset="1" stop-color="#FBB500"/>
</linearGradient>
</defs>
</svg>
