<svg width="115" height="115" viewBox="0 0 115 115" fill="none" xmlns="http://www.w3.org/2000/svg">
<path d="M57.5 115C69.8574 115 81.8861 111.019 91.8036 103.647C101.721 96.2744 109 85.9032 112.561 74.07C116.122 62.2368 115.776 49.5711 111.574 37.9499C107.373 26.3286 99.5392 16.3701 89.2341 9.55009C78.9291 2.73004 66.7011 -0.588689 54.3621 0.0856886C42.023 0.760066 30.2295 5.39166 20.7292 13.2942C11.2288 21.1967 4.52706 31.9496 1.61704 43.9595C-1.29298 55.9694 -0.256439 68.5973 4.57306 79.972L21.4286 72.8154C18.1371 65.0632 17.4307 56.4569 19.414 48.2717C21.3973 40.0866 25.9647 32.7581 32.4395 27.3723C38.9143 21.9865 46.952 18.8299 55.3614 18.3703C63.7708 17.9107 72.1046 20.1725 79.1278 24.8206C86.151 29.4687 91.4899 36.2557 94.3534 44.176C97.2169 52.0962 97.4526 60.7283 95.0256 68.793C92.5986 76.8577 87.6381 83.926 80.879 88.9504C74.1199 93.9748 65.922 96.6881 57.5 96.6881L57.5 115Z" fill="url(#paint0_linear_165_1865)"/>
<path d="M57.5 5.11599e-06C69.8574 4.57583e-06 81.8861 3.9811 91.8036 11.3534C101.721 18.7256 109 29.0968 112.561 40.93C116.122 52.7632 115.776 65.4289 111.574 77.0501C107.373 88.6714 99.5392 98.6299 89.2341 105.45C78.9291 112.27 66.7011 115.589 54.3621 114.914C42.023 114.24 30.2295 109.608 20.7292 101.706C11.2288 93.8033 4.52706 83.0504 1.61704 71.0405C-1.29298 59.0306 -0.256439 46.4027 4.57306 35.028L21.4286 42.1846C18.1371 49.9368 17.4307 58.5431 19.414 66.7283C21.3973 74.9134 25.9647 82.2419 32.4395 87.6277C38.9143 93.0135 46.952 96.1701 55.3614 96.6297C63.7708 97.0893 72.1046 94.8275 79.1278 90.1794C86.151 85.5313 91.4899 78.7443 94.3534 70.824C97.2169 62.9038 97.4526 54.2717 95.0256 46.207C92.5986 38.1423 87.6381 31.074 80.879 26.0496C74.1199 21.0252 65.922 18.3119 57.5 18.3119L57.5 5.11599e-06Z" fill="#5D5D5D"/>
<defs>
<linearGradient id="paint0_linear_165_1865" x1="-2.5134e-06" y1="57.5" x2="115" y2="57.5" gradientUnits="userSpaceOnUse">
<stop stop-color="#FA0034"/>
<stop offset="1" stop-color="#FBB500"/>
</linearGradient>
</defs>
</svg>
