<svg width="272" height="191" viewBox="0 0 272 191" fill="none" xmlns="http://www.w3.org/2000/svg">
<g filter="url(#filter0_f_132_1395)">
<path d="M86.6014 90.4805C86.6014 93.026 86.8583 98.1697 87.8858 98.3803C89.1702 98.6437 97.1976 111.81 90.4546 128.927" stroke="url(#paint0_linear_132_1395)" stroke-width="0.5"/>
<path d="M88.8488 76.2607C88.9558 80.4739 89.8121 89.4798 92.3809 91.7971" stroke="url(#paint1_linear_132_1395)" stroke-width="0.5"/>
<path d="M90.1338 71.5207C94.5221 80.825 102.464 99.1703 99.1246 98.117" stroke="url(#paint2_linear_132_1395)" stroke-width="0.5"/>
<path d="M70.8672 48.8744C68.5125 48.1722 62.5828 47.0311 57.7021 48.0844C56.0966 48.1722 52.8857 48.0317 52.8857 46.7678" stroke="url(#paint3_linear_132_1395)" stroke-width="0.5"/>
<path d="M88.5276 43.0811C84.0322 41.4134 73.8855 38.9205 69.2617 42.2911M86.9221 87.3205C86.8151 89.7783 87.0505 94.9571 88.8487 96.0104C93.237 102.155 101.885 116.287 101.372 123.66M101.372 123.66C100.729 128.049 100.729 137.774 105.867 141.566M101.372 123.66C103.619 125.942 108.885 130.454 111.968 130.243" stroke="url(#paint4_linear_132_1395)" stroke-width="0.5"/>
<path d="M64.4452 62.5675C65.3014 59.4076 69.5828 52.561 79.8579 50.4544M86.601 48.8744C81.9986 52.8243 72.858 61.4089 73.1149 64.1475M97.1973 53.351C92.0597 52.9999 80.4359 53.983 75.0414 60.7242" stroke="url(#paint5_linear_132_1395)" stroke-width="0.5"/>
<path d="M83.7114 46.7678C81.1426 47.7333 74.9775 49.5064 70.8675 48.8744C67.8705 49.05 60.7207 50.6124 56.0969 55.4576" stroke="url(#paint6_linear_132_1395)" stroke-width="0.5"/>
<path d="M61.2344 42.291C59.2007 42.7299 54.684 44.187 52.8858 46.5043" stroke="url(#paint7_linear_132_1395)" stroke-width="0.5"/>
<path d="M83.7114 46.7678C79.9653 49.8399 72.6014 57.6169 73.1152 64.1475" stroke="url(#paint8_linear_132_1395)" stroke-width="0.5"/>
<path d="M77.2891 70.994C76.3258 75.2951 74.6561 83.7392 75.6836 83.1072" stroke="url(#paint9_linear_132_1395)" stroke-width="0.5"/>
<path d="M54.8123 40.4478L61.2343 42.2911C66.8 41.8522 79.2158 42.2384 84.3534 47.2943C86.4941 49.0499 92.2524 52.7189 98.1606 53.3509" stroke="url(#paint10_linear_132_1395)" stroke-width="0.5"/>
<path d="M78.2527 76.2607C80.3933 72.5741 85.7664 64.0949 90.1333 59.6709C92.0599 56.8621 96.748 51.8237 100.087 54.141" stroke="url(#paint11_linear_132_1395)" stroke-width="0.5"/>
<path d="M102.014 54.1409C100.516 54.0531 97.1333 53.2982 95.592 50.9809C92.8091 44.3977 80.7572 33.0745 54.8124 40.4477C55.1335 40.1844 40.6841 40.7111 41.0052 39.9211C41.3263 39.1311 41.3263 45.9777 52.8858 46.5043C52.5647 51.2443 56.0326 61.6194 72.4729 65.2007C72.4729 64.9374 81.1425 55.1942 93.6654 53.8776C93.9865 53.8776 94.9498 54.4042 93.6654 54.9309C92.1669 56.3353 89.17 59.1968 89.17 59.4075C89.17 59.6708 75.3628 65.7274 74.7206 72.8373C75.0417 72.8373 72.4729 85.7404 72.4729 85.4771C72.4729 85.2138 76.6472 86.0038 77.9315 76.7872C77.9315 76.5239 89.8122 71.5206 90.7755 60.4608C91.0966 60.1975 95.2709 53.8776 96.2342 54.9309C96.2342 55.4575 95.6562 57.5115 93.3443 61.5141C93.3443 61.7774 70.5463 116.023 103.941 149.993C103.941 150.256 103.941 143.146 107.152 141.303C107.152 141.04 121.922 132.35 100.408 108.913C100.73 108.65 91.4176 94.167 92.3809 91.797C92.6378 91.797 97.8397 97.2392 100.408 99.9602C100.944 95.7716 100.73 85.2729 95.592 76.7872C95.592 76.2606 93.0233 53.3509 102.014 54.1409Z" stroke="url(#paint12_linear_132_1395)"/>
<path d="M76.9683 68.0974L77.9316 76.7872" stroke="url(#paint13_linear_132_1395)" stroke-width="0.5"/>
<path d="M77.9318 76.7873C78.8951 73.1884 81.785 65.0954 85.6382 61.5141" stroke="url(#paint14_linear_132_1395)" stroke-width="0.5"/>
</g>
<g filter="url(#filter1_f_132_1395)">
<path d="M86.6014 90.4805C86.6014 93.026 86.8583 98.1697 87.8858 98.3803C89.1702 98.6437 97.1976 111.81 90.4546 128.927" stroke="url(#paint15_linear_132_1395)" stroke-width="0.5"/>
<path d="M88.8488 76.2607C88.9558 80.4739 89.8121 89.4798 92.3809 91.7971" stroke="url(#paint16_linear_132_1395)" stroke-width="0.5"/>
<path d="M90.1338 71.5207C94.5221 80.825 102.464 99.1703 99.1246 98.117" stroke="url(#paint17_linear_132_1395)" stroke-width="0.5"/>
<path d="M70.8672 48.8744C68.5125 48.1722 62.5828 47.0311 57.7021 48.0844C56.0966 48.1722 52.8857 48.0317 52.8857 46.7678" stroke="url(#paint18_linear_132_1395)" stroke-width="0.5"/>
<path d="M88.5276 43.0811C84.0322 41.4134 73.8855 38.9205 69.2617 42.2911M86.9221 87.3205C86.8151 89.7783 87.0505 94.9571 88.8487 96.0104C93.237 102.155 101.885 116.287 101.372 123.66M101.372 123.66C100.729 128.049 100.729 137.774 105.867 141.566M101.372 123.66C103.619 125.942 108.885 130.454 111.968 130.243" stroke="url(#paint19_linear_132_1395)" stroke-width="0.5"/>
<path d="M64.4452 62.5675C65.3014 59.4076 69.5828 52.561 79.8579 50.4544M86.601 48.8744C81.9986 52.8243 72.858 61.4089 73.1149 64.1475M97.1973 53.351C92.0597 52.9999 80.4359 53.983 75.0414 60.7242" stroke="url(#paint20_linear_132_1395)" stroke-width="0.5"/>
<path d="M83.7114 46.7678C81.1426 47.7333 74.9775 49.5064 70.8675 48.8744C67.8705 49.05 60.7207 50.6124 56.0969 55.4576" stroke="url(#paint21_linear_132_1395)" stroke-width="0.5"/>
<path d="M61.2344 42.291C59.2007 42.7299 54.684 44.187 52.8858 46.5043" stroke="url(#paint22_linear_132_1395)" stroke-width="0.5"/>
<path d="M83.7114 46.7678C79.9653 49.8399 72.6014 57.6169 73.1152 64.1475" stroke="url(#paint23_linear_132_1395)" stroke-width="0.5"/>
<path d="M77.2891 70.994C76.3258 75.2951 74.6561 83.7392 75.6836 83.1072" stroke="url(#paint24_linear_132_1395)" stroke-width="0.5"/>
<path d="M54.8123 40.4478L61.2343 42.2911C66.8 41.8522 79.2158 42.2384 84.3534 47.2943C86.4941 49.0499 92.2524 52.7189 98.1606 53.3509" stroke="url(#paint25_linear_132_1395)" stroke-width="0.5"/>
<path d="M78.2527 76.2607C80.3933 72.5741 85.7664 64.0949 90.1333 59.6709C92.0599 56.8621 96.748 51.8237 100.087 54.141" stroke="url(#paint26_linear_132_1395)" stroke-width="0.5"/>
<path d="M102.014 54.1409C100.516 54.0531 97.1333 53.2982 95.592 50.9809C92.8091 44.3977 80.7572 33.0745 54.8124 40.4477C55.1335 40.1844 40.6841 40.7111 41.0052 39.9211C41.3263 39.1311 41.3263 45.9777 52.8858 46.5043C52.5647 51.2443 56.0326 61.6194 72.4729 65.2007C72.4729 64.9374 81.1425 55.1942 93.6654 53.8776C93.9865 53.8776 94.9498 54.4042 93.6654 54.9309C92.1669 56.3353 89.17 59.1968 89.17 59.4075C89.17 59.6708 75.3628 65.7274 74.7206 72.8373C75.0417 72.8373 72.4729 85.7404 72.4729 85.4771C72.4729 85.2138 76.6472 86.0038 77.9315 76.7872C77.9315 76.5239 89.8122 71.5206 90.7755 60.4608C91.0966 60.1975 95.2709 53.8776 96.2342 54.9309C96.2342 55.4575 95.6562 57.5115 93.3443 61.5141C93.3443 61.7774 70.5463 116.023 103.941 149.993C103.941 150.256 103.941 143.146 107.152 141.303C107.152 141.04 121.922 132.35 100.408 108.913C100.73 108.65 91.4176 94.167 92.3809 91.797C92.6378 91.797 97.8397 97.2392 100.408 99.9602C100.944 95.7716 100.73 85.2729 95.592 76.7872C95.592 76.2606 93.0233 53.3509 102.014 54.1409Z" stroke="url(#paint27_linear_132_1395)"/>
<path d="M76.9683 68.0974L77.9316 76.7872" stroke="url(#paint28_linear_132_1395)" stroke-width="0.5"/>
<path d="M77.9318 76.7873C78.8951 73.1884 81.785 65.0954 85.6382 61.5141" stroke="url(#paint29_linear_132_1395)" stroke-width="0.5"/>
</g>
<g filter="url(#filter2_b_132_1395)">
<path d="M86.6014 90.4805C86.6014 93.026 86.8583 98.1697 87.8858 98.3803C89.1702 98.6437 97.1976 111.81 90.4546 128.927" stroke="url(#paint30_linear_132_1395)" stroke-width="0.5"/>
<path d="M88.8488 76.2607C88.9558 80.4739 89.8121 89.4798 92.3809 91.7971" stroke="url(#paint31_linear_132_1395)" stroke-width="0.5"/>
<path d="M90.1338 71.5207C94.5221 80.825 102.464 99.1703 99.1246 98.117" stroke="url(#paint32_linear_132_1395)" stroke-width="0.5"/>
<path d="M70.8672 48.8744C68.5125 48.1722 62.5828 47.0311 57.7021 48.0844C56.0966 48.1722 52.8857 48.0317 52.8857 46.7678" stroke="url(#paint33_linear_132_1395)" stroke-width="0.5"/>
<path d="M88.5276 43.0811C84.0322 41.4134 73.8855 38.9205 69.2617 42.2911M86.9221 87.3205C86.8151 89.7783 87.0505 94.9571 88.8487 96.0104C93.237 102.155 101.885 116.287 101.372 123.66M101.372 123.66C100.729 128.049 100.729 137.774 105.867 141.566M101.372 123.66C103.619 125.942 108.885 130.454 111.968 130.243" stroke="url(#paint34_linear_132_1395)" stroke-width="0.5"/>
<path d="M64.4452 62.5675C65.3014 59.4076 69.5828 52.561 79.8579 50.4544M86.601 48.8744C81.9986 52.8243 72.858 61.4089 73.1149 64.1475M97.1973 53.351C92.0597 52.9999 80.4359 53.983 75.0414 60.7242" stroke="url(#paint35_linear_132_1395)" stroke-width="0.5"/>
<path d="M83.7114 46.7678C81.1426 47.7333 74.9775 49.5064 70.8675 48.8744C67.8705 49.05 60.7207 50.6124 56.0969 55.4576" stroke="url(#paint36_linear_132_1395)" stroke-width="0.5"/>
<path d="M61.2344 42.291C59.2007 42.7299 54.684 44.187 52.8858 46.5043" stroke="url(#paint37_linear_132_1395)" stroke-width="0.5"/>
<path d="M83.7114 46.7678C79.9653 49.8399 72.6014 57.6169 73.1152 64.1475" stroke="url(#paint38_linear_132_1395)" stroke-width="0.5"/>
<path d="M77.2891 70.994C76.3258 75.2951 74.6561 83.7392 75.6836 83.1072" stroke="url(#paint39_linear_132_1395)" stroke-width="0.5"/>
<path d="M54.8123 40.4478L61.2343 42.2911C66.8 41.8522 79.2158 42.2384 84.3534 47.2943C86.4941 49.0499 92.2524 52.7189 98.1606 53.3509" stroke="url(#paint40_linear_132_1395)" stroke-width="0.5"/>
<path d="M78.2527 76.2607C80.3933 72.5741 85.7664 64.0949 90.1333 59.6709C92.0599 56.8621 96.748 51.8237 100.087 54.141" stroke="url(#paint41_linear_132_1395)" stroke-width="0.5"/>
<path d="M102.014 54.1409C100.516 54.0531 97.1333 53.2982 95.592 50.9809C92.8091 44.3977 80.7572 33.0745 54.8124 40.4477C55.1335 40.1844 40.6841 40.7111 41.0052 39.9211C41.3263 39.1311 41.3263 45.9777 52.8858 46.5043C52.5647 51.2443 56.0326 61.6194 72.4729 65.2007C72.4729 64.9374 81.1425 55.1942 93.6654 53.8776C93.9865 53.8776 94.9498 54.4042 93.6654 54.9309C92.1669 56.3353 89.17 59.1968 89.17 59.4075C89.17 59.6708 75.3628 65.7274 74.7206 72.8373C75.0417 72.8373 72.4729 85.7404 72.4729 85.4771C72.4729 85.2138 76.6472 86.0038 77.9315 76.7872C77.9315 76.5239 89.8122 71.5206 90.7755 60.4608C91.0966 60.1975 95.2709 53.8776 96.2342 54.9309C96.2342 55.4575 95.6562 57.5115 93.3443 61.5141C93.3443 61.7774 70.5463 116.023 103.941 149.993C103.941 150.256 103.941 143.146 107.152 141.303C107.152 141.04 121.922 132.35 100.408 108.913C100.73 108.65 91.4176 94.167 92.3809 91.797C92.6378 91.797 97.8397 97.2392 100.408 99.9602C100.944 95.7716 100.73 85.2729 95.592 76.7872C95.592 76.2606 93.0233 53.3509 102.014 54.1409Z" stroke="url(#paint42_linear_132_1395)"/>
<path d="M76.9683 68.0974L77.9316 76.7872" stroke="url(#paint43_linear_132_1395)" stroke-width="0.5"/>
<path d="M77.9318 76.7873C78.8951 73.1884 81.785 65.0954 85.6382 61.5141" stroke="url(#paint44_linear_132_1395)" stroke-width="0.5"/>
</g>
<g filter="url(#filter3_f_132_1395)">
<path d="M185.399 90.4805C185.399 93.026 185.142 98.1697 184.114 98.3803C182.83 98.6437 174.802 111.81 181.545 128.927" stroke="url(#paint45_linear_132_1395)" stroke-width="0.5"/>
<path d="M183.151 76.2607C183.044 80.4739 182.188 89.4798 179.619 91.7971" stroke="url(#paint46_linear_132_1395)" stroke-width="0.5"/>
<path d="M181.866 71.5207C177.478 80.825 169.536 99.1703 172.875 98.117" stroke="url(#paint47_linear_132_1395)" stroke-width="0.5"/>
<path d="M201.133 48.8744C203.488 48.1722 209.417 47.0311 214.298 48.0844C215.903 48.1722 219.114 48.0317 219.114 46.7678" stroke="url(#paint48_linear_132_1395)" stroke-width="0.5"/>
<path d="M183.472 43.0811C187.968 41.4134 198.115 38.9205 202.738 42.2911M185.078 87.3205C185.185 89.7783 184.949 94.9571 183.151 96.0104C178.763 102.155 170.115 116.287 170.628 123.66M170.628 123.66C171.271 128.049 171.271 137.774 166.133 141.566M170.628 123.66C168.381 125.942 163.115 130.454 160.032 130.243" stroke="url(#paint49_linear_132_1395)" stroke-width="0.5"/>
<path d="M207.555 62.5675C206.699 59.4076 202.417 52.561 192.142 50.4544M185.399 48.8744C190.001 52.8243 199.142 61.4089 198.885 64.1475M174.803 53.351C179.94 52.9999 191.564 53.983 196.959 60.7242" stroke="url(#paint50_linear_132_1395)" stroke-width="0.5"/>
<path d="M188.289 46.7678C190.857 47.7333 197.022 49.5064 201.133 48.8744C204.129 49.05 211.279 50.6124 215.903 55.4576" stroke="url(#paint51_linear_132_1395)" stroke-width="0.5"/>
<path d="M210.766 42.291C212.799 42.7299 217.316 44.187 219.114 46.5043" stroke="url(#paint52_linear_132_1395)" stroke-width="0.5"/>
<path d="M188.289 46.7678C192.035 49.8399 199.399 57.6169 198.885 64.1475" stroke="url(#paint53_linear_132_1395)" stroke-width="0.5"/>
<path d="M194.711 70.994C195.674 75.2951 197.344 83.7392 196.316 83.1072" stroke="url(#paint54_linear_132_1395)" stroke-width="0.5"/>
<path d="M217.188 40.4478L210.766 42.2911C205.2 41.8522 192.784 42.2384 187.647 47.2943C185.506 49.0499 179.748 52.7189 173.839 53.3509" stroke="url(#paint55_linear_132_1395)" stroke-width="0.5"/>
<path d="M193.747 76.2607C191.607 72.5741 186.234 64.0949 181.867 59.6709C179.94 56.8621 175.252 51.8237 171.913 54.141" stroke="url(#paint56_linear_132_1395)" stroke-width="0.5"/>
<path d="M169.986 54.1409C171.484 54.0531 174.867 53.2982 176.408 50.9809C179.191 44.3977 191.243 33.0745 217.188 40.4477C216.866 40.1844 231.316 40.7111 230.995 39.9211C230.674 39.1311 230.674 45.9777 219.114 46.5043C219.435 51.2443 215.967 61.6194 199.527 65.2007C199.527 64.9374 190.857 55.1942 178.335 53.8776C178.014 53.8776 177.05 54.4042 178.335 54.9309C179.833 56.3353 182.83 59.1968 182.83 59.4075C182.83 59.6708 196.637 65.7274 197.279 72.8373C196.958 72.8373 199.527 85.7404 199.527 85.4771C199.527 85.2138 195.353 86.0038 194.068 76.7872C194.068 76.5239 182.188 71.5206 181.224 60.4608C180.903 60.1975 176.729 53.8776 175.766 54.9309C175.766 55.4575 176.344 57.5115 178.656 61.5141C178.656 61.7774 201.454 116.023 168.059 149.993C168.059 150.256 168.059 143.146 164.848 141.303C164.848 141.04 150.078 132.35 171.592 108.913C171.27 108.65 180.582 94.167 179.619 91.797C179.362 91.797 174.16 97.2392 171.592 99.9602C171.056 95.7716 171.27 85.2729 176.408 76.7872C176.408 76.2606 178.977 53.3509 169.986 54.1409Z" stroke="url(#paint57_linear_132_1395)"/>
<path d="M195.032 68.0974L194.068 76.7872" stroke="url(#paint58_linear_132_1395)" stroke-width="0.5"/>
<path d="M194.068 76.7873C193.105 73.1884 190.215 65.0954 186.362 61.5141" stroke="url(#paint59_linear_132_1395)" stroke-width="0.5"/>
</g>
<g filter="url(#filter4_f_132_1395)">
<path d="M185.399 90.4805C185.399 93.026 185.142 98.1697 184.114 98.3803C182.83 98.6437 174.802 111.81 181.545 128.927" stroke="url(#paint60_linear_132_1395)" stroke-width="0.5"/>
<path d="M183.151 76.2607C183.044 80.4739 182.188 89.4798 179.619 91.7971" stroke="url(#paint61_linear_132_1395)" stroke-width="0.5"/>
<path d="M181.866 71.5207C177.478 80.825 169.536 99.1703 172.875 98.117" stroke="url(#paint62_linear_132_1395)" stroke-width="0.5"/>
<path d="M201.133 48.8744C203.488 48.1722 209.417 47.0311 214.298 48.0844C215.903 48.1722 219.114 48.0317 219.114 46.7678" stroke="url(#paint63_linear_132_1395)" stroke-width="0.5"/>
<path d="M183.472 43.0811C187.968 41.4134 198.115 38.9205 202.738 42.2911M185.078 87.3205C185.185 89.7783 184.949 94.9571 183.151 96.0104C178.763 102.155 170.115 116.287 170.628 123.66M170.628 123.66C171.271 128.049 171.271 137.774 166.133 141.566M170.628 123.66C168.381 125.942 163.115 130.454 160.032 130.243" stroke="url(#paint64_linear_132_1395)" stroke-width="0.5"/>
<path d="M207.555 62.5675C206.699 59.4076 202.417 52.561 192.142 50.4544M185.399 48.8744C190.001 52.8243 199.142 61.4089 198.885 64.1475M174.803 53.351C179.94 52.9999 191.564 53.983 196.959 60.7242" stroke="url(#paint65_linear_132_1395)" stroke-width="0.5"/>
<path d="M188.289 46.7678C190.857 47.7333 197.022 49.5064 201.133 48.8744C204.129 49.05 211.279 50.6124 215.903 55.4576" stroke="url(#paint66_linear_132_1395)" stroke-width="0.5"/>
<path d="M210.766 42.291C212.799 42.7299 217.316 44.187 219.114 46.5043" stroke="url(#paint67_linear_132_1395)" stroke-width="0.5"/>
<path d="M188.289 46.7678C192.035 49.8399 199.399 57.6169 198.885 64.1475" stroke="url(#paint68_linear_132_1395)" stroke-width="0.5"/>
<path d="M194.711 70.994C195.674 75.2951 197.344 83.7392 196.316 83.1072" stroke="url(#paint69_linear_132_1395)" stroke-width="0.5"/>
<path d="M217.188 40.4478L210.766 42.2911C205.2 41.8522 192.784 42.2384 187.647 47.2943C185.506 49.0499 179.748 52.7189 173.839 53.3509" stroke="url(#paint70_linear_132_1395)" stroke-width="0.5"/>
<path d="M193.747 76.2607C191.607 72.5741 186.234 64.0949 181.867 59.6709C179.94 56.8621 175.252 51.8237 171.913 54.141" stroke="url(#paint71_linear_132_1395)" stroke-width="0.5"/>
<path d="M169.986 54.1409C171.484 54.0531 174.867 53.2982 176.408 50.9809C179.191 44.3977 191.243 33.0745 217.188 40.4477C216.866 40.1844 231.316 40.7111 230.995 39.9211C230.674 39.1311 230.674 45.9777 219.114 46.5043C219.435 51.2443 215.967 61.6194 199.527 65.2007C199.527 64.9374 190.857 55.1942 178.335 53.8776C178.014 53.8776 177.05 54.4042 178.335 54.9309C179.833 56.3353 182.83 59.1968 182.83 59.4075C182.83 59.6708 196.637 65.7274 197.279 72.8373C196.958 72.8373 199.527 85.7404 199.527 85.4771C199.527 85.2138 195.353 86.0038 194.068 76.7872C194.068 76.5239 182.188 71.5206 181.224 60.4608C180.903 60.1975 176.729 53.8776 175.766 54.9309C175.766 55.4575 176.344 57.5115 178.656 61.5141C178.656 61.7774 201.454 116.023 168.059 149.993C168.059 150.256 168.059 143.146 164.848 141.303C164.848 141.04 150.078 132.35 171.592 108.913C171.27 108.65 180.582 94.167 179.619 91.797C179.362 91.797 174.16 97.2392 171.592 99.9602C171.056 95.7716 171.27 85.2729 176.408 76.7872C176.408 76.2606 178.977 53.3509 169.986 54.1409Z" stroke="url(#paint72_linear_132_1395)"/>
<path d="M195.032 68.0974L194.068 76.7872" stroke="url(#paint73_linear_132_1395)" stroke-width="0.5"/>
<path d="M194.068 76.7873C193.105 73.1884 190.215 65.0954 186.362 61.5141" stroke="url(#paint74_linear_132_1395)" stroke-width="0.5"/>
</g>
<g filter="url(#filter5_b_132_1395)">
<path d="M185.399 90.4805C185.399 93.026 185.142 98.1697 184.114 98.3803C182.83 98.6437 174.802 111.81 181.545 128.927" stroke="url(#paint75_linear_132_1395)" stroke-width="0.5"/>
<path d="M183.151 76.2607C183.044 80.4739 182.188 89.4798 179.619 91.7971" stroke="url(#paint76_linear_132_1395)" stroke-width="0.5"/>
<path d="M181.866 71.5207C177.478 80.825 169.536 99.1703 172.875 98.117" stroke="url(#paint77_linear_132_1395)" stroke-width="0.5"/>
<path d="M201.133 48.8744C203.488 48.1722 209.417 47.0311 214.298 48.0844C215.903 48.1722 219.114 48.0317 219.114 46.7678" stroke="url(#paint78_linear_132_1395)" stroke-width="0.5"/>
<path d="M183.472 43.0811C187.968 41.4134 198.115 38.9205 202.738 42.2911M185.078 87.3205C185.185 89.7783 184.949 94.9571 183.151 96.0104C178.763 102.155 170.115 116.287 170.628 123.66M170.628 123.66C171.271 128.049 171.271 137.774 166.133 141.566M170.628 123.66C168.381 125.942 163.115 130.454 160.032 130.243" stroke="url(#paint79_linear_132_1395)" stroke-width="0.5"/>
<path d="M207.555 62.5675C206.699 59.4076 202.417 52.561 192.142 50.4544M185.399 48.8744C190.001 52.8243 199.142 61.4089 198.885 64.1475M174.803 53.351C179.94 52.9999 191.564 53.983 196.959 60.7242" stroke="url(#paint80_linear_132_1395)" stroke-width="0.5"/>
<path d="M188.289 46.7678C190.857 47.7333 197.022 49.5064 201.133 48.8744C204.129 49.05 211.279 50.6124 215.903 55.4576" stroke="url(#paint81_linear_132_1395)" stroke-width="0.5"/>
<path d="M210.766 42.291C212.799 42.7299 217.316 44.187 219.114 46.5043" stroke="url(#paint82_linear_132_1395)" stroke-width="0.5"/>
<path d="M188.289 46.7678C192.035 49.8399 199.399 57.6169 198.885 64.1475" stroke="url(#paint83_linear_132_1395)" stroke-width="0.5"/>
<path d="M194.711 70.994C195.674 75.2951 197.344 83.7392 196.316 83.1072" stroke="url(#paint84_linear_132_1395)" stroke-width="0.5"/>
<path d="M217.188 40.4478L210.766 42.2911C205.2 41.8522 192.784 42.2384 187.647 47.2943C185.506 49.0499 179.748 52.7189 173.839 53.3509" stroke="url(#paint85_linear_132_1395)" stroke-width="0.5"/>
<path d="M193.747 76.2607C191.607 72.5741 186.234 64.0949 181.867 59.6709C179.94 56.8621 175.252 51.8237 171.913 54.141" stroke="url(#paint86_linear_132_1395)" stroke-width="0.5"/>
<path d="M169.986 54.1409C171.484 54.0531 174.867 53.2982 176.408 50.9809C179.191 44.3977 191.243 33.0745 217.188 40.4477C216.866 40.1844 231.316 40.7111 230.995 39.9211C230.674 39.1311 230.674 45.9777 219.114 46.5043C219.435 51.2443 215.967 61.6194 199.527 65.2007C199.527 64.9374 190.857 55.1942 178.335 53.8776C178.014 53.8776 177.05 54.4042 178.335 54.9309C179.833 56.3353 182.83 59.1968 182.83 59.4075C182.83 59.6708 196.637 65.7274 197.279 72.8373C196.958 72.8373 199.527 85.7404 199.527 85.4771C199.527 85.2138 195.353 86.0038 194.068 76.7872C194.068 76.5239 182.188 71.5206 181.224 60.4608C180.903 60.1975 176.729 53.8776 175.766 54.9309C175.766 55.4575 176.344 57.5115 178.656 61.5141C178.656 61.7774 201.454 116.023 168.059 149.993C168.059 150.256 168.059 143.146 164.848 141.303C164.848 141.04 150.078 132.35 171.592 108.913C171.27 108.65 180.582 94.167 179.619 91.797C179.362 91.797 174.16 97.2392 171.592 99.9602C171.056 95.7716 171.27 85.2729 176.408 76.7872C176.408 76.2606 178.977 53.3509 169.986 54.1409Z" stroke="url(#paint87_linear_132_1395)"/>
<path d="M195.032 68.0974L194.068 76.7872" stroke="url(#paint88_linear_132_1395)" stroke-width="0.5"/>
<path d="M194.068 76.7873C193.105 73.1884 190.215 65.0954 186.362 61.5141" stroke="url(#paint89_linear_132_1395)" stroke-width="0.5"/>
</g>
<path d="M127.736 35.868C127.904 35.988 127.892 36.168 127.7 36.408C127.484 36.72 127.208 36.972 126.872 37.164C126.56 37.332 126.308 37.392 126.116 37.344C125.876 37.272 125.636 37.2 125.396 37.128C125.18 37.056 124.94 36.984 124.676 36.912C124.076 36.96 123.5 37.152 122.948 37.488C122.396 37.8 121.868 38.28 121.364 38.928C120.86 39.552 120.38 40.356 119.924 41.34C119.468 42.3 119.024 43.464 118.592 44.832C117.344 48.888 115.592 51.936 113.336 53.976C111.104 55.992 108.416 57 105.272 57C103.544 57 102.2 56.628 101.24 55.884C100.28 55.14 99.8 54.18 99.8 53.004C99.8 52.164 100.064 51.396 100.592 50.7C101.144 49.98 101.804 49.452 102.572 49.116C102.668 49.116 102.728 49.164 102.752 49.26C102.8 49.356 102.8 49.44 102.752 49.512C102.344 49.824 102.056 50.172 101.888 50.556C101.72 50.94 101.636 51.384 101.636 51.888C101.636 53.112 102.092 54.06 103.004 54.732C103.94 55.404 105.248 55.74 106.928 55.74C108.08 55.74 109.088 55.596 109.952 55.308C110.84 54.996 111.632 54.468 112.328 53.724C113.024 52.98 113.66 51.984 114.236 50.736C114.836 49.464 115.448 47.868 116.072 45.948C116.936 43.236 117.992 41.1 119.24 39.54C120.488 37.956 121.928 36.984 123.56 36.624C121.976 36.216 120.332 35.892 118.628 35.652C116.924 35.412 115.196 35.292 113.444 35.292C112.1 35.292 110.924 35.508 109.916 35.94C108.908 36.348 108.08 36.912 107.432 37.632C106.784 38.328 106.316 39.156 106.028 40.116C105.74 41.076 105.668 42.096 105.812 43.176C105.692 43.416 105.56 43.44 105.416 43.248C105.272 42.048 105.368 40.884 105.704 39.756C106.04 38.628 106.604 37.62 107.396 36.732C108.188 35.844 109.208 35.136 110.456 34.608C111.728 34.08 113.24 33.816 114.992 33.816C117.536 33.816 119.864 34.032 121.976 34.464C124.088 34.872 126.008 35.34 127.736 35.868ZM132.084 54.732C132.132 54.684 132.192 54.684 132.264 54.732C132.336 54.78 132.36 54.852 132.336 54.948C131.904 55.572 131.424 56.076 130.896 56.46C130.368 56.82 129.864 57 129.384 57C128.832 57 128.472 56.616 128.304 55.848C128.16 55.056 128.244 54.12 128.556 53.04C127.908 54.072 127.2 54.96 126.432 55.704C125.688 56.424 124.896 56.856 124.056 57C123.48 57 123.036 56.736 122.724 56.208C122.412 55.68 122.256 55.068 122.256 54.372C122.256 53.58 122.448 52.8 122.832 52.032C123.216 51.24 123.72 50.532 124.344 49.908C124.992 49.284 125.7 48.78 126.468 48.396C127.26 47.988 128.052 47.784 128.844 47.784C129.684 47.784 130.344 47.988 130.824 48.396C131.064 48.228 131.364 48.084 131.724 47.964C132.108 47.844 132.444 47.784 132.732 47.784C132.828 47.784 132.876 47.844 132.876 47.964C132.324 48.636 131.844 49.38 131.436 50.196C131.052 50.988 130.752 51.756 130.536 52.5C130.32 53.22 130.188 53.868 130.14 54.444C130.092 55.02 130.14 55.416 130.284 55.632C130.404 55.776 130.608 55.824 130.896 55.776C131.184 55.704 131.58 55.356 132.084 54.732ZM125.172 55.668C125.46 55.668 125.808 55.488 126.216 55.128C126.648 54.768 127.092 54.288 127.548 53.688C128.004 53.088 128.448 52.416 128.88 51.672C129.336 50.928 129.732 50.172 130.068 49.404C129.972 49.092 129.744 48.84 129.384 48.648C129.048 48.456 128.652 48.36 128.196 48.36C127.644 48.36 127.128 48.504 126.648 48.792C126.168 49.056 125.748 49.44 125.388 49.944C125.052 50.424 124.776 51.012 124.56 51.708C124.368 52.38 124.272 53.124 124.272 53.94C124.272 54.468 124.356 54.888 124.524 55.2C124.716 55.512 124.932 55.668 125.172 55.668ZM142.709 47.964C142.829 48.012 142.877 48.084 142.853 48.18C142.829 48.252 142.721 48.312 142.529 48.36C142.169 48.36 141.749 48.372 141.269 48.396C140.813 48.42 140.321 48.456 139.793 48.504C139.313 49.68 138.917 50.832 138.605 51.96C138.293 53.064 138.137 53.964 138.137 54.66C138.137 55.476 138.449 55.884 139.073 55.884C139.697 55.884 140.393 55.344 141.161 54.264C141.233 54.216 141.293 54.216 141.341 54.264C141.413 54.312 141.437 54.396 141.413 54.516C141.005 55.188 140.489 55.776 139.865 56.28C139.241 56.76 138.629 57 138.029 57C137.405 57 136.937 56.856 136.625 56.568C136.337 56.256 136.193 55.836 136.193 55.308C136.193 54.612 136.361 53.652 136.697 52.428C137.033 51.204 137.465 49.956 137.993 48.684C137.369 48.756 136.793 48.852 136.265 48.972C136.145 48.948 136.109 48.888 136.157 48.792C136.229 48.696 136.337 48.6 136.481 48.504C136.649 48.384 136.841 48.288 137.057 48.216C137.273 48.12 137.477 48.072 137.669 48.072C137.765 48.072 137.861 48.072 137.957 48.072C138.053 48.072 138.149 48.06 138.245 48.036C138.557 47.34 138.881 46.668 139.217 46.02C139.553 45.372 139.889 44.784 140.225 44.256C140.369 44.088 140.561 43.944 140.801 43.824C141.065 43.68 141.317 43.572 141.557 43.5C141.797 43.428 141.989 43.392 142.133 43.392C142.301 43.368 142.373 43.404 142.349 43.5C141.941 44.124 141.533 44.82 141.125 45.588C140.741 46.356 140.369 47.16 140.009 48C140.465 47.976 140.921 47.964 141.377 47.964C141.857 47.964 142.301 47.964 142.709 47.964ZM151.224 47.964C151.344 48.012 151.392 48.084 151.368 48.18C151.344 48.252 151.236 48.312 151.044 48.36C150.684 48.36 150.264 48.372 149.784 48.396C149.328 48.42 148.836 48.456 148.308 48.504C147.828 49.68 147.432 50.832 147.12 51.96C146.808 53.064 146.652 53.964 146.652 54.66C146.652 55.476 146.964 55.884 147.588 55.884C148.212 55.884 148.908 55.344 149.676 54.264C149.748 54.216 149.808 54.216 149.856 54.264C149.928 54.312 149.952 54.396 149.928 54.516C149.52 55.188 149.004 55.776 148.38 56.28C147.756 56.76 147.144 57 146.544 57C145.92 57 145.452 56.856 145.14 56.568C144.852 56.256 144.708 55.836 144.708 55.308C144.708 54.612 144.876 53.652 145.212 52.428C145.548 51.204 145.98 49.956 146.508 48.684C145.884 48.756 145.308 48.852 144.78 48.972C144.66 48.948 144.624 48.888 144.672 48.792C144.744 48.696 144.852 48.6 144.996 48.504C145.164 48.384 145.356 48.288 145.572 48.216C145.788 48.12 145.992 48.072 146.184 48.072C146.28 48.072 146.376 48.072 146.472 48.072C146.568 48.072 146.664 48.06 146.76 48.036C147.072 47.34 147.396 46.668 147.732 46.02C148.068 45.372 148.404 44.784 148.74 44.256C148.884 44.088 149.076 43.944 149.316 43.824C149.58 43.68 149.832 43.572 150.072 43.5C150.312 43.428 150.504 43.392 150.648 43.392C150.816 43.368 150.888 43.404 150.864 43.5C150.456 44.124 150.048 44.82 149.64 45.588C149.256 46.356 148.884 47.16 148.524 48C148.98 47.976 149.436 47.964 149.892 47.964C150.372 47.964 150.816 47.964 151.224 47.964ZM158.191 47.784C159.031 47.784 159.655 48.036 160.063 48.54C160.471 49.044 160.675 49.632 160.675 50.304C160.675 51.24 160.483 52.116 160.099 52.932C159.739 53.724 159.283 54.432 158.731 55.056C158.203 55.656 157.627 56.136 157.003 56.496C156.379 56.832 155.815 57 155.311 57C154.495 57 153.871 56.76 153.439 56.28C153.031 55.776 152.827 55.14 152.827 54.372C152.827 53.676 152.971 52.944 153.259 52.176C153.571 51.408 153.967 50.7 154.447 50.052C154.951 49.404 155.527 48.864 156.175 48.432C156.823 48 157.495 47.784 158.191 47.784ZM156.211 55.884C156.955 55.884 157.579 55.5 158.083 54.732C158.611 53.94 158.875 52.86 158.875 51.492C158.875 50.772 158.731 50.172 158.443 49.692C158.155 49.212 157.735 48.972 157.183 48.972C156.415 48.972 155.791 49.344 155.311 50.088C154.831 50.832 154.591 51.924 154.591 53.364C154.591 54.204 154.735 54.84 155.023 55.272C155.335 55.68 155.731 55.884 156.211 55.884ZM169.272 47.784C170.112 47.784 170.736 48.036 171.144 48.54C171.552 49.044 171.756 49.632 171.756 50.304C171.756 51.24 171.564 52.116 171.18 52.932C170.82 53.724 170.364 54.432 169.812 55.056C169.284 55.656 168.708 56.136 168.084 56.496C167.46 56.832 166.896 57 166.392 57C165.576 57 164.952 56.76 164.52 56.28C164.112 55.776 163.908 55.14 163.908 54.372C163.908 53.676 164.052 52.944 164.34 52.176C164.652 51.408 165.048 50.7 165.528 50.052C166.032 49.404 166.608 48.864 167.256 48.432C167.904 48 168.576 47.784 169.272 47.784ZM167.292 55.884C168.036 55.884 168.66 55.5 169.164 54.732C169.692 53.94 169.956 52.86 169.956 51.492C169.956 50.772 169.812 50.172 169.524 49.692C169.236 49.212 168.816 48.972 168.264 48.972C167.496 48.972 166.872 49.344 166.392 50.088C165.912 50.832 165.672 51.924 165.672 53.364C165.672 54.204 165.816 54.84 166.104 55.272C166.416 55.68 166.812 55.884 167.292 55.884Z" fill="white"/>
<path d="M143.112 61.6234C143.365 61.6234 143.578 61.69 143.752 61.8234C143.938 61.9434 144.078 62.1034 144.172 62.3034C144.265 62.5034 144.305 62.7234 144.292 62.9634C144.292 63.2034 144.238 63.4434 144.132 63.6834C144.025 63.7634 143.958 63.7434 143.932 63.6234C143.905 63.3567 143.758 63.1234 143.492 62.9234C143.225 62.7234 142.798 62.6234 142.212 62.6234C141.852 62.6234 141.518 62.6567 141.212 62.7234C140.905 62.79 140.612 62.9234 140.332 63.1234C140.065 63.3234 139.798 63.6167 139.532 64.0034C139.265 64.3767 138.985 64.8767 138.692 65.5034C138.398 66.13 138.085 66.9034 137.752 67.8234C137.418 68.7434 137.052 69.8434 136.652 71.1234C136.985 71.11 137.325 71.1034 137.672 71.1034C138.018 71.1034 138.358 71.1034 138.692 71.1034C138.758 71.13 138.785 71.17 138.772 71.2234C138.758 71.2767 138.698 71.31 138.592 71.3234C138.285 71.3367 137.958 71.35 137.612 71.3634C137.265 71.3634 136.918 71.3767 136.572 71.4034C136.545 71.47 136.518 71.5434 136.492 71.6234C136.478 71.69 136.458 71.7567 136.432 71.8234C135.912 73.49 135.352 74.91 134.752 76.0834C134.152 77.2434 133.532 78.19 132.892 78.9234C132.238 79.6567 131.578 80.19 130.912 80.5234C130.245 80.8567 129.585 81.0234 128.932 81.0234C128.492 81.0234 128.158 80.9167 127.932 80.7034C127.692 80.49 127.572 80.2167 127.572 79.8834C127.572 79.5234 127.698 79.1967 127.952 78.9034C127.992 78.8634 128.032 78.8567 128.072 78.8834C128.098 78.91 128.112 78.9434 128.112 78.9834C128.045 79.1167 128.018 79.2567 128.032 79.4034C128.045 79.5634 128.105 79.71 128.212 79.8434C128.305 79.9767 128.452 80.0834 128.652 80.1634C128.852 80.2567 129.112 80.3034 129.432 80.3034C130.045 80.3034 130.592 80.21 131.072 80.0234C131.552 79.85 132.018 79.4634 132.472 78.8634C132.912 78.2767 133.358 77.43 133.812 76.3234C134.278 75.2167 134.798 73.73 135.372 71.8634L135.492 71.5034C135.238 71.53 134.998 71.5634 134.772 71.6034C134.545 71.63 134.325 71.6634 134.112 71.7034C134.045 71.69 134.032 71.6567 134.072 71.6034C134.112 71.55 134.172 71.4967 134.252 71.4434C134.345 71.39 134.452 71.3434 134.572 71.3034C134.692 71.25 134.805 71.2167 134.912 71.2034C135.018 71.19 135.125 71.1834 135.232 71.1834C135.352 71.17 135.472 71.1567 135.592 71.1434C136.138 69.49 136.712 68.0634 137.312 66.8634C137.925 65.6634 138.552 64.6767 139.192 63.9034C139.832 63.1167 140.478 62.5434 141.132 62.1834C141.798 61.81 142.458 61.6234 143.112 61.6234ZM140.529 71.0434C140.995 71.0434 141.342 71.1834 141.569 71.4634C141.795 71.7434 141.909 72.07 141.909 72.4434C141.909 72.9634 141.802 73.45 141.589 73.9034C141.389 74.3434 141.135 74.7367 140.829 75.0834C140.535 75.4167 140.215 75.6834 139.869 75.8834C139.522 76.07 139.209 76.1634 138.929 76.1634C138.475 76.1634 138.129 76.03 137.889 75.7634C137.662 75.4834 137.549 75.13 137.549 74.7034C137.549 74.3167 137.629 73.91 137.789 73.4834C137.962 73.0567 138.182 72.6634 138.449 72.3034C138.729 71.9434 139.049 71.6434 139.409 71.4034C139.769 71.1634 140.142 71.0434 140.529 71.0434ZM139.429 75.5434C139.842 75.5434 140.189 75.33 140.469 74.9034C140.762 74.4634 140.909 73.8634 140.909 73.1034C140.909 72.7034 140.829 72.37 140.669 72.1034C140.509 71.8367 140.275 71.7034 139.969 71.7034C139.542 71.7034 139.195 71.91 138.929 72.3234C138.662 72.7367 138.529 73.3434 138.529 74.1434C138.529 74.61 138.609 74.9634 138.769 75.2034C138.942 75.43 139.162 75.5434 139.429 75.5434ZM144.825 71.6234C144.825 71.8234 144.805 72.05 144.765 72.3034C144.725 72.5567 144.672 72.8167 144.605 73.0834C144.872 72.4434 145.165 71.9434 145.485 71.5834C145.805 71.2234 146.152 71.0434 146.525 71.0434C146.725 71.0434 146.878 71.09 146.985 71.1834C147.092 71.2767 147.145 71.3967 147.145 71.5434C147.145 71.6767 147.092 71.85 146.985 72.0634C146.892 72.2767 146.812 72.4234 146.745 72.5034C146.718 72.5167 146.692 72.5167 146.665 72.5034C146.638 72.4767 146.625 72.45 146.625 72.4234C146.625 72.33 146.585 72.25 146.505 72.1834C146.438 72.1167 146.332 72.0834 146.185 72.0834C145.718 72.0834 145.292 72.4034 144.905 73.0434C144.532 73.67 144.185 74.5767 143.865 75.7634C143.852 75.83 143.805 75.89 143.725 75.9434C143.645 75.9834 143.552 76.0234 143.445 76.0634C143.352 76.09 143.252 76.1167 143.145 76.1434C143.038 76.1567 142.945 76.1634 142.865 76.1634C142.718 76.1634 142.678 76.0834 142.745 75.9234C142.865 75.6434 142.978 75.3434 143.085 75.0234C143.205 74.69 143.312 74.3567 143.405 74.0234C143.498 73.69 143.578 73.37 143.645 73.0634C143.712 72.7434 143.765 72.45 143.805 72.1834C143.832 71.9834 143.838 71.83 143.825 71.7234C143.825 71.6167 143.772 71.5634 143.665 71.5634C143.532 71.5634 143.392 71.6234 143.245 71.7434C143.112 71.85 142.985 71.99 142.865 72.1634C142.812 72.2034 142.758 72.21 142.705 72.1834C142.665 72.1434 142.658 72.0967 142.685 72.0434C142.765 71.9367 142.858 71.83 142.965 71.7234C143.085 71.6034 143.212 71.4967 143.345 71.4034C143.492 71.2967 143.638 71.21 143.785 71.1434C143.945 71.0767 144.105 71.0434 144.265 71.0434C144.478 71.0434 144.625 71.0967 144.705 71.2034C144.785 71.2967 144.825 71.4367 144.825 71.6234Z" fill="white"/>
<path d="M116.884 89.8664C117.564 90.0704 118.165 90.3764 118.686 90.7844C119.23 91.1924 119.683 91.6684 120.046 92.2124C120.431 92.7338 120.726 93.2891 120.93 93.8784C121.134 94.4451 121.236 95.0004 121.236 95.5444C121.236 96.5191 121.043 97.4144 120.658 98.2304C120.295 99.0464 119.729 99.7604 118.958 100.372C118.21 100.962 117.247 101.426 116.068 101.766C114.889 102.084 113.495 102.242 111.886 102.242C109.325 102.242 107.092 101.902 105.188 101.222C103.307 100.52 101.584 99.5224 100.02 98.2304C99.952 98.1171 99.9633 97.9924 100.054 97.8564C100.167 97.6978 100.326 97.5618 100.53 97.4484C100.734 97.3351 100.949 97.2558 101.176 97.2104C101.425 97.1651 101.652 97.1878 101.856 97.2784C102.287 97.7091 102.717 97.9924 103.148 98.1284C103.579 98.2418 104.111 98.2418 104.746 98.1284C105.335 98.0151 105.823 97.7998 106.208 97.4824C106.616 97.1424 106.979 96.6211 107.296 95.9184C107.636 95.2158 107.976 94.2978 108.316 93.1644C108.679 92.0311 109.098 90.6031 109.574 88.8804C110.05 87.1804 110.639 85.7071 111.342 84.4604C112.067 83.2138 112.94 82.1598 113.96 81.2984C113.824 81.2984 113.677 81.2984 113.518 81.2984C113.382 81.2758 113.223 81.2644 113.042 81.2644C112.294 81.2644 111.557 81.3664 110.832 81.5704C110.107 81.7744 109.415 82.0804 108.758 82.4884C108.123 82.8964 107.545 83.3951 107.024 83.9844C106.503 84.5511 106.083 85.2084 105.766 85.9564C105.698 86.0018 105.63 86.0131 105.562 85.9904C105.517 85.9451 105.505 85.8658 105.528 85.7524C105.8 85.0498 106.208 84.3698 106.752 83.7124C107.296 83.0551 107.953 82.4771 108.724 81.9784C109.495 81.4798 110.367 81.0831 111.342 80.7884C112.317 80.4938 113.348 80.3464 114.436 80.3464C114.595 80.3464 114.742 80.3464 114.878 80.3464C115.014 80.3464 115.15 80.3578 115.286 80.3804C115.762 80.1084 116.261 79.8704 116.782 79.6664C117.303 79.4398 117.859 79.2584 118.448 79.1224C118.561 79.1224 118.618 79.1678 118.618 79.2584C118.618 79.3264 118.561 79.3831 118.448 79.4284C117.632 79.6324 116.884 79.9724 116.204 80.4484C118.199 80.6978 119.683 81.2644 120.658 82.1484C121.655 83.0324 122.154 84.0638 122.154 85.2424C122.154 85.9224 122.018 86.5458 121.746 87.1124C121.474 87.6791 121.1 88.1664 120.624 88.5744C120.171 88.9824 119.615 89.2998 118.958 89.5264C118.323 89.7531 117.632 89.8664 116.884 89.8664ZM112.634 101.732C113.654 101.732 114.561 101.596 115.354 101.324C116.17 101.03 116.85 100.644 117.394 100.168C117.938 99.6698 118.346 99.0918 118.618 98.4344C118.913 97.7771 119.06 97.0631 119.06 96.2924C119.06 93.3458 117.247 91.3851 113.62 90.4104C113.552 90.3424 113.575 90.2404 113.688 90.1044C113.824 89.9458 113.994 89.7984 114.198 89.6624C114.402 89.5038 114.617 89.3791 114.844 89.2884C115.071 89.1978 115.252 89.1638 115.388 89.1864C115.615 89.2771 115.807 89.3451 115.966 89.3904C116.147 89.4358 116.374 89.4584 116.646 89.4584C117.054 89.4584 117.451 89.3678 117.836 89.1864C118.244 89.0051 118.595 88.7671 118.89 88.4724C119.207 88.1551 119.457 87.7811 119.638 87.3504C119.842 86.9198 119.944 86.4551 119.944 85.9564C119.944 84.8684 119.536 83.9051 118.72 83.0664C117.904 82.2278 116.68 81.6838 115.048 81.4344C113.597 82.9304 112.464 85.2084 111.648 88.2684C111.059 90.4671 110.469 92.2464 109.88 93.6064C109.313 94.9438 108.713 95.9978 108.078 96.7684C107.466 97.5164 106.809 98.0264 106.106 98.2984C105.403 98.5704 104.61 98.7291 103.726 98.7744C104.882 99.6358 106.231 100.35 107.772 100.916C109.313 101.46 110.934 101.732 112.634 101.732ZM133.647 100.1C133.693 100.055 133.749 100.055 133.817 100.1C133.885 100.146 133.908 100.214 133.885 100.304C133.477 100.894 133.024 101.37 132.525 101.732C132.027 102.072 131.551 102.242 131.097 102.242C130.576 102.242 130.236 101.88 130.077 101.154C129.941 100.406 130.021 99.5224 130.315 98.5024C129.703 99.4771 129.035 100.316 128.309 101.018C127.607 101.698 126.859 102.106 126.065 102.242C125.521 102.242 125.102 101.993 124.807 101.494C124.513 100.996 124.365 100.418 124.365 99.7604C124.365 99.0124 124.547 98.2758 124.909 97.5504C125.272 96.8024 125.748 96.1338 126.337 95.5444C126.949 94.9551 127.618 94.4791 128.343 94.1164C129.091 93.7311 129.839 93.5384 130.587 93.5384C131.381 93.5384 132.004 93.7311 132.457 94.1164C132.684 93.9578 132.967 93.8218 133.307 93.7084C133.67 93.5951 133.987 93.5384 134.259 93.5384C134.35 93.5384 134.395 93.5951 134.395 93.7084C133.874 94.3431 133.421 95.0458 133.035 95.8164C132.673 96.5644 132.389 97.2898 132.185 97.9924C131.981 98.6724 131.857 99.2844 131.811 99.8284C131.766 100.372 131.811 100.746 131.947 100.95C132.061 101.086 132.253 101.132 132.525 101.086C132.797 101.018 133.171 100.69 133.647 100.1ZM127.119 100.984C127.391 100.984 127.72 100.814 128.105 100.474C128.513 100.134 128.933 99.6811 129.363 99.1144C129.794 98.5478 130.213 97.9131 130.621 97.2104C131.052 96.5078 131.426 95.7938 131.743 95.0684C131.653 94.7738 131.437 94.5358 131.097 94.3544C130.78 94.1731 130.406 94.0824 129.975 94.0824C129.454 94.0824 128.967 94.2184 128.513 94.4904C128.06 94.7398 127.663 95.1024 127.323 95.5784C127.006 96.0318 126.745 96.5871 126.541 97.2444C126.36 97.8791 126.269 98.5818 126.269 99.3524C126.269 99.8511 126.349 100.248 126.507 100.542C126.689 100.837 126.893 100.984 127.119 100.984ZM140.758 94.5244C140.758 94.8644 140.724 95.2498 140.656 95.6804C140.588 96.1111 140.498 96.5531 140.384 97.0064C140.838 95.9184 141.336 95.0684 141.88 94.4564C142.424 93.8444 143.014 93.5384 143.648 93.5384C143.988 93.5384 144.249 93.6178 144.43 93.7764C144.612 93.9351 144.702 94.1391 144.702 94.3884C144.702 94.6151 144.612 94.9098 144.43 95.2724C144.272 95.6351 144.136 95.8844 144.022 96.0204C143.977 96.0431 143.932 96.0431 143.886 96.0204C143.841 95.9751 143.818 95.9298 143.818 95.8844C143.818 95.7258 143.75 95.5898 143.614 95.4764C143.501 95.3631 143.32 95.3064 143.07 95.3064C142.277 95.3064 141.552 95.8504 140.894 96.9384C140.26 98.0038 139.67 99.5451 139.126 101.562C139.104 101.676 139.024 101.778 138.888 101.868C138.752 101.936 138.594 102.004 138.412 102.072C138.254 102.118 138.084 102.163 137.902 102.208C137.721 102.231 137.562 102.242 137.426 102.242C137.177 102.242 137.109 102.106 137.222 101.834C137.426 101.358 137.619 100.848 137.8 100.304C138.004 99.7378 138.186 99.1711 138.344 98.6044C138.503 98.0378 138.639 97.4938 138.752 96.9724C138.866 96.4284 138.956 95.9298 139.024 95.4764C139.07 95.1364 139.081 94.8758 139.058 94.6944C139.058 94.5131 138.968 94.4224 138.786 94.4224C138.56 94.4224 138.322 94.5244 138.072 94.7284C137.846 94.9098 137.63 95.1478 137.426 95.4424C137.336 95.5104 137.245 95.5218 137.154 95.4764C137.086 95.4084 137.075 95.3291 137.12 95.2384C137.256 95.0571 137.415 94.8758 137.596 94.6944C137.8 94.4904 138.016 94.3091 138.242 94.1504C138.492 93.9691 138.741 93.8218 138.99 93.7084C139.262 93.5951 139.534 93.5384 139.806 93.5384C140.169 93.5384 140.418 93.6291 140.554 93.8104C140.69 93.9691 140.758 94.2071 140.758 94.5244ZM162.923 76.5384C163.354 76.5384 163.717 76.6404 164.011 76.8444C164.306 77.0258 164.533 77.2751 164.691 77.5924C164.85 77.9098 164.941 78.2724 164.963 78.6804C164.986 79.0658 164.952 79.4738 164.861 79.9044C164.725 79.9951 164.623 79.9838 164.555 79.8704C164.487 79.4171 164.249 79.0318 163.841 78.7144C163.433 78.3744 162.833 78.2044 162.039 78.2044C160.77 78.2044 159.591 78.5218 158.503 79.1564C157.415 79.7911 156.384 80.8224 155.409 82.2504C154.457 83.6558 153.539 85.4918 152.655 87.7584C151.794 90.0024 150.944 92.7451 150.105 95.9864C150.264 95.7371 150.479 95.4764 150.751 95.2044C151.046 94.9098 151.375 94.6378 151.737 94.3884C152.1 94.1391 152.474 93.9351 152.859 93.7764C153.267 93.6178 153.664 93.5384 154.049 93.5384C154.525 93.5384 154.911 93.7538 155.205 94.1844C155.5 94.6151 155.647 95.1251 155.647 95.7144C155.647 96.5758 155.432 97.4031 155.001 98.1964C154.571 98.9671 154.027 99.6584 153.369 100.27C152.712 100.86 151.998 101.336 151.227 101.698C150.457 102.061 149.731 102.242 149.051 102.242C148.485 102.242 148.088 102.106 147.861 101.834C147.635 101.562 147.521 101.177 147.521 100.678C147.521 100.044 147.601 99.2958 147.759 98.4344C147.941 97.5504 148.179 96.6211 148.473 95.6464C148.768 94.6491 149.119 93.6178 149.527 92.5524C149.958 91.4644 150.411 90.3991 150.887 89.3564C152.814 85.2084 154.763 82.0351 156.735 79.8364C158.73 77.6378 160.793 76.5384 162.923 76.5384ZM152.893 94.6604C152.553 94.6604 152.191 94.7738 151.805 95.0004C151.42 95.2044 151.057 95.5331 150.717 95.9864C150.377 96.4171 150.083 96.9611 149.833 97.6184C149.607 98.2758 149.459 99.0351 149.391 99.8964C149.346 100.395 149.403 100.746 149.561 100.95C149.743 101.154 150.003 101.256 150.343 101.256C150.774 101.256 151.205 101.12 151.635 100.848C152.066 100.554 152.451 100.18 152.791 99.7264C153.154 99.2504 153.437 98.7291 153.641 98.1624C153.868 97.5958 153.981 97.0291 153.981 96.4624C153.981 95.8051 153.879 95.3404 153.675 95.0684C153.471 94.7964 153.211 94.6604 152.893 94.6604ZM163.003 92.0764C162.935 92.1444 162.856 92.1444 162.765 92.0764C162.697 92.0084 162.64 91.9178 162.595 91.8044C162.55 91.6684 162.527 91.5324 162.527 91.3964C162.527 91.2378 162.561 91.1018 162.629 90.9884C162.878 90.6711 163.241 90.2744 163.717 89.7984C164.216 89.2998 164.726 88.8804 165.247 88.5404C165.292 88.5178 165.349 88.5404 165.417 88.6084C165.485 88.6538 165.508 88.6991 165.485 88.7444C165.009 89.1751 164.556 89.6964 164.125 90.3084C163.694 90.8978 163.32 91.4871 163.003 92.0764ZM159.365 95.9184C159.297 95.9638 159.24 95.9524 159.195 95.8844C159.15 95.7938 159.138 95.7144 159.161 95.6464C160 94.9664 161.167 94.2638 162.663 93.5384C162.844 93.5384 162.935 93.6404 162.935 93.8444C162.64 94.3658 162.346 94.9324 162.051 95.5444C161.779 96.1564 161.53 96.7684 161.303 97.3804C161.099 97.9698 160.929 98.5478 160.793 99.1144C160.657 99.6584 160.589 100.112 160.589 100.474C160.589 100.928 160.748 101.154 161.065 101.154C161.314 101.154 161.552 101.052 161.779 100.848C162.028 100.622 162.312 100.338 162.629 99.9984C162.674 99.9531 162.731 99.9644 162.799 100.032C162.867 100.078 162.878 100.157 162.833 100.27C162.334 100.86 161.836 101.336 161.337 101.698C160.861 102.061 160.396 102.242 159.943 102.242C159.15 102.242 158.753 101.868 158.753 101.12C158.753 100.712 158.81 100.236 158.923 99.6924C159.059 99.1258 159.229 98.5591 159.433 97.9924C159.66 97.4031 159.898 96.8364 160.147 96.2924C160.419 95.7258 160.691 95.2384 160.963 94.8304C160.714 94.9664 160.43 95.1364 160.113 95.3404C159.818 95.5444 159.569 95.7371 159.365 95.9184ZM172.999 95.2384C172.999 96.5304 171.288 97.4144 167.865 97.8904C167.843 98.1171 167.82 98.3438 167.797 98.5704C167.797 98.7971 167.797 99.0351 167.797 99.2844C167.797 99.8738 167.933 100.327 168.205 100.644C168.477 100.962 168.908 101.12 169.497 101.12C169.928 101.12 170.37 100.996 170.823 100.746C171.277 100.497 171.639 100.18 171.911 99.7944C172.002 99.7491 172.07 99.7718 172.115 99.8624C172.161 99.9304 172.172 100.01 172.149 100.1C171.696 100.69 171.118 101.2 170.415 101.63C169.735 102.038 168.999 102.242 168.205 102.242C167.412 102.242 166.834 102.05 166.471 101.664C166.131 101.256 165.961 100.69 165.961 99.9644C165.961 99.2618 166.109 98.5364 166.403 97.7884C166.698 97.0178 167.072 96.3151 167.525 95.6804C168.001 95.0458 168.534 94.5358 169.123 94.1504C169.735 93.7424 170.347 93.5384 170.959 93.5384C171.571 93.5384 172.059 93.7198 172.421 94.0824C172.807 94.4224 172.999 94.8078 172.999 95.2384ZM170.041 94.4224C169.52 94.4224 169.067 94.6718 168.681 95.1704C168.319 95.6464 168.069 96.3944 167.933 97.4144C169.021 97.3011 169.826 97.0971 170.347 96.8024C170.869 96.4851 171.129 96.0998 171.129 95.6464C171.129 95.3064 171.027 95.0231 170.823 94.7964C170.619 94.5471 170.359 94.4224 170.041 94.4224Z" fill="white"/>
<defs>
<filter id="filter0_f_132_1395" x="0.499512" y="-2.45666" width="152.098" height="192.8" filterUnits="userSpaceOnUse" color-interpolation-filters="sRGB">
<feFlood flood-opacity="0" result="BackgroundImageFix"/>
<feBlend mode="normal" in="SourceGraphic" in2="BackgroundImageFix" result="shape"/>
<feGaussianBlur stdDeviation="20" result="effect1_foregroundBlur_132_1395"/>
</filter>
<filter id="filter1_f_132_1395" x="39.4995" y="36.5433" width="74.0977" height="114.8" filterUnits="userSpaceOnUse" color-interpolation-filters="sRGB">
<feFlood flood-opacity="0" result="BackgroundImageFix"/>
<feBlend mode="normal" in="SourceGraphic" in2="BackgroundImageFix" result="shape"/>
<feGaussianBlur stdDeviation="0.5" result="effect1_foregroundBlur_132_1395"/>
</filter>
<filter id="filter2_b_132_1395" x="39.4995" y="36.5433" width="74.0977" height="114.8" filterUnits="userSpaceOnUse" color-interpolation-filters="sRGB">
<feFlood flood-opacity="0" result="BackgroundImageFix"/>
<feGaussianBlur in="BackgroundImageFix" stdDeviation="0.5"/>
<feComposite in2="SourceAlpha" operator="in" result="effect1_backgroundBlur_132_1395"/>
<feBlend mode="normal" in="SourceGraphic" in2="effect1_backgroundBlur_132_1395" result="shape"/>
</filter>
<filter id="filter3_f_132_1395" x="119.403" y="-2.45666" width="152.098" height="192.8" filterUnits="userSpaceOnUse" color-interpolation-filters="sRGB">
<feFlood flood-opacity="0" result="BackgroundImageFix"/>
<feBlend mode="normal" in="SourceGraphic" in2="BackgroundImageFix" result="shape"/>
<feGaussianBlur stdDeviation="20" result="effect1_foregroundBlur_132_1395"/>
</filter>
<filter id="filter4_f_132_1395" x="158.403" y="36.5433" width="74.0977" height="114.8" filterUnits="userSpaceOnUse" color-interpolation-filters="sRGB">
<feFlood flood-opacity="0" result="BackgroundImageFix"/>
<feBlend mode="normal" in="SourceGraphic" in2="BackgroundImageFix" result="shape"/>
<feGaussianBlur stdDeviation="0.5" result="effect1_foregroundBlur_132_1395"/>
</filter>
<filter id="filter5_b_132_1395" x="158.403" y="36.5433" width="74.0977" height="114.8" filterUnits="userSpaceOnUse" color-interpolation-filters="sRGB">
<feFlood flood-opacity="0" result="BackgroundImageFix"/>
<feGaussianBlur in="BackgroundImageFix" stdDeviation="0.5"/>
<feComposite in2="SourceAlpha" operator="in" result="effect1_backgroundBlur_132_1395"/>
<feBlend mode="normal" in="SourceGraphic" in2="effect1_backgroundBlur_132_1395" result="shape"/>
</filter>
<linearGradient id="paint0_linear_132_1395" x1="89.8603" y1="90.4805" x2="89.8603" y2="128.927" gradientUnits="userSpaceOnUse">
<stop stop-color="#FA0034"/>
<stop offset="1" stop-color="#FBB500"/>
</linearGradient>
<linearGradient id="paint1_linear_132_1395" x1="90.6148" y1="76.2607" x2="90.6148" y2="91.7971" gradientUnits="userSpaceOnUse">
<stop stop-color="#FA0034"/>
<stop offset="1" stop-color="#FBB500"/>
</linearGradient>
<linearGradient id="paint2_linear_132_1395" x1="95.0283" y1="71.5207" x2="95.0283" y2="98.1605" gradientUnits="userSpaceOnUse">
<stop stop-color="#FA0034"/>
<stop offset="1" stop-color="#FBB500"/>
</linearGradient>
<linearGradient id="paint3_linear_132_1395" x1="61.8764" y1="46.7678" x2="61.8764" y2="48.8744" gradientUnits="userSpaceOnUse">
<stop stop-color="#FA0034"/>
<stop offset="1" stop-color="#FBB500"/>
</linearGradient>
<linearGradient id="paint4_linear_132_1395" x1="90.6147" y1="40.6185" x2="90.6147" y2="141.566" gradientUnits="userSpaceOnUse">
<stop stop-color="#FA0034"/>
<stop offset="1" stop-color="#FBB500"/>
</linearGradient>
<linearGradient id="paint5_linear_132_1395" x1="80.8212" y1="48.8744" x2="80.8212" y2="64.1475" gradientUnits="userSpaceOnUse">
<stop stop-color="#FA0034"/>
<stop offset="1" stop-color="#FBB500"/>
</linearGradient>
<linearGradient id="paint6_linear_132_1395" x1="69.9042" y1="46.7678" x2="69.9042" y2="55.4576" gradientUnits="userSpaceOnUse">
<stop stop-color="#FA0034"/>
<stop offset="1" stop-color="#FBB500"/>
</linearGradient>
<linearGradient id="paint7_linear_132_1395" x1="57.0601" y1="42.291" x2="57.0601" y2="46.5043" gradientUnits="userSpaceOnUse">
<stop stop-color="#FA0034"/>
<stop offset="1" stop-color="#FBB500"/>
</linearGradient>
<linearGradient id="paint8_linear_132_1395" x1="78.4005" y1="46.7678" x2="78.4005" y2="64.1475" gradientUnits="userSpaceOnUse">
<stop stop-color="#FA0034"/>
<stop offset="1" stop-color="#FBB500"/>
</linearGradient>
<linearGradient id="paint9_linear_132_1395" x1="76.3249" y1="70.994" x2="76.3249" y2="83.1408" gradientUnits="userSpaceOnUse">
<stop stop-color="#FA0034"/>
<stop offset="1" stop-color="#FBB500"/>
</linearGradient>
<linearGradient id="paint10_linear_132_1395" x1="76.4865" y1="40.4478" x2="76.4865" y2="53.3509" gradientUnits="userSpaceOnUse">
<stop stop-color="#FA0034"/>
<stop offset="1" stop-color="#FBB500"/>
</linearGradient>
<linearGradient id="paint11_linear_132_1395" x1="89.17" y1="53.5487" x2="89.17" y2="76.2607" gradientUnits="userSpaceOnUse">
<stop stop-color="#FA0034"/>
<stop offset="1" stop-color="#FBB500"/>
</linearGradient>
<linearGradient id="paint12_linear_132_1395" x1="76.5483" y1="38.0422" x2="76.5483" y2="150" gradientUnits="userSpaceOnUse">
<stop stop-color="#FA0034"/>
<stop offset="1" stop-color="#FBB500"/>
</linearGradient>
<linearGradient id="paint13_linear_132_1395" x1="77.45" y1="68.0974" x2="77.45" y2="76.7872" gradientUnits="userSpaceOnUse">
<stop stop-color="#FA0034"/>
<stop offset="1" stop-color="#FBB500"/>
</linearGradient>
<linearGradient id="paint14_linear_132_1395" x1="81.785" y1="61.5141" x2="81.785" y2="76.7873" gradientUnits="userSpaceOnUse">
<stop stop-color="#FA0034"/>
<stop offset="1" stop-color="#FBB500"/>
</linearGradient>
<linearGradient id="paint15_linear_132_1395" x1="89.8603" y1="90.4805" x2="89.8603" y2="128.927" gradientUnits="userSpaceOnUse">
<stop stop-color="#FA0034"/>
<stop offset="1" stop-color="#FBB500"/>
</linearGradient>
<linearGradient id="paint16_linear_132_1395" x1="90.6148" y1="76.2607" x2="90.6148" y2="91.7971" gradientUnits="userSpaceOnUse">
<stop stop-color="#FA0034"/>
<stop offset="1" stop-color="#FBB500"/>
</linearGradient>
<linearGradient id="paint17_linear_132_1395" x1="95.0283" y1="71.5207" x2="95.0283" y2="98.1605" gradientUnits="userSpaceOnUse">
<stop stop-color="#FA0034"/>
<stop offset="1" stop-color="#FBB500"/>
</linearGradient>
<linearGradient id="paint18_linear_132_1395" x1="61.8764" y1="46.7678" x2="61.8764" y2="48.8744" gradientUnits="userSpaceOnUse">
<stop stop-color="#FA0034"/>
<stop offset="1" stop-color="#FBB500"/>
</linearGradient>
<linearGradient id="paint19_linear_132_1395" x1="90.6147" y1="40.6185" x2="90.6147" y2="141.566" gradientUnits="userSpaceOnUse">
<stop stop-color="#FA0034"/>
<stop offset="1" stop-color="#FBB500"/>
</linearGradient>
<linearGradient id="paint20_linear_132_1395" x1="80.8212" y1="48.8744" x2="80.8212" y2="64.1475" gradientUnits="userSpaceOnUse">
<stop stop-color="#FA0034"/>
<stop offset="1" stop-color="#FBB500"/>
</linearGradient>
<linearGradient id="paint21_linear_132_1395" x1="69.9042" y1="46.7678" x2="69.9042" y2="55.4576" gradientUnits="userSpaceOnUse">
<stop stop-color="#FA0034"/>
<stop offset="1" stop-color="#FBB500"/>
</linearGradient>
<linearGradient id="paint22_linear_132_1395" x1="57.0601" y1="42.291" x2="57.0601" y2="46.5043" gradientUnits="userSpaceOnUse">
<stop stop-color="#FA0034"/>
<stop offset="1" stop-color="#FBB500"/>
</linearGradient>
<linearGradient id="paint23_linear_132_1395" x1="78.4005" y1="46.7678" x2="78.4005" y2="64.1475" gradientUnits="userSpaceOnUse">
<stop stop-color="#FA0034"/>
<stop offset="1" stop-color="#FBB500"/>
</linearGradient>
<linearGradient id="paint24_linear_132_1395" x1="76.3249" y1="70.994" x2="76.3249" y2="83.1408" gradientUnits="userSpaceOnUse">
<stop stop-color="#FA0034"/>
<stop offset="1" stop-color="#FBB500"/>
</linearGradient>
<linearGradient id="paint25_linear_132_1395" x1="76.4865" y1="40.4478" x2="76.4865" y2="53.3509" gradientUnits="userSpaceOnUse">
<stop stop-color="#FA0034"/>
<stop offset="1" stop-color="#FBB500"/>
</linearGradient>
<linearGradient id="paint26_linear_132_1395" x1="89.17" y1="53.5487" x2="89.17" y2="76.2607" gradientUnits="userSpaceOnUse">
<stop stop-color="#FA0034"/>
<stop offset="1" stop-color="#FBB500"/>
</linearGradient>
<linearGradient id="paint27_linear_132_1395" x1="76.5483" y1="38.0422" x2="76.5483" y2="150" gradientUnits="userSpaceOnUse">
<stop stop-color="#FA0034"/>
<stop offset="1" stop-color="#FBB500"/>
</linearGradient>
<linearGradient id="paint28_linear_132_1395" x1="77.45" y1="68.0974" x2="77.45" y2="76.7872" gradientUnits="userSpaceOnUse">
<stop stop-color="#FA0034"/>
<stop offset="1" stop-color="#FBB500"/>
</linearGradient>
<linearGradient id="paint29_linear_132_1395" x1="81.785" y1="61.5141" x2="81.785" y2="76.7873" gradientUnits="userSpaceOnUse">
<stop stop-color="#FA0034"/>
<stop offset="1" stop-color="#FBB500"/>
</linearGradient>
<linearGradient id="paint30_linear_132_1395" x1="89.8603" y1="90.4805" x2="89.8603" y2="128.927" gradientUnits="userSpaceOnUse">
<stop stop-color="#FA0034"/>
<stop offset="1" stop-color="#FBB500"/>
</linearGradient>
<linearGradient id="paint31_linear_132_1395" x1="90.6148" y1="76.2607" x2="90.6148" y2="91.7971" gradientUnits="userSpaceOnUse">
<stop stop-color="#FA0034"/>
<stop offset="1" stop-color="#FBB500"/>
</linearGradient>
<linearGradient id="paint32_linear_132_1395" x1="95.0283" y1="71.5207" x2="95.0283" y2="98.1605" gradientUnits="userSpaceOnUse">
<stop stop-color="#FA0034"/>
<stop offset="1" stop-color="#FBB500"/>
</linearGradient>
<linearGradient id="paint33_linear_132_1395" x1="61.8764" y1="46.7678" x2="61.8764" y2="48.8744" gradientUnits="userSpaceOnUse">
<stop stop-color="#FA0034"/>
<stop offset="1" stop-color="#FBB500"/>
</linearGradient>
<linearGradient id="paint34_linear_132_1395" x1="90.6147" y1="40.6185" x2="90.6147" y2="141.566" gradientUnits="userSpaceOnUse">
<stop stop-color="#FA0034"/>
<stop offset="1" stop-color="#FBB500"/>
</linearGradient>
<linearGradient id="paint35_linear_132_1395" x1="80.8212" y1="48.8744" x2="80.8212" y2="64.1475" gradientUnits="userSpaceOnUse">
<stop stop-color="#FA0034"/>
<stop offset="1" stop-color="#FBB500"/>
</linearGradient>
<linearGradient id="paint36_linear_132_1395" x1="69.9042" y1="46.7678" x2="69.9042" y2="55.4576" gradientUnits="userSpaceOnUse">
<stop stop-color="#FA0034"/>
<stop offset="1" stop-color="#FBB500"/>
</linearGradient>
<linearGradient id="paint37_linear_132_1395" x1="57.0601" y1="42.291" x2="57.0601" y2="46.5043" gradientUnits="userSpaceOnUse">
<stop stop-color="#FA0034"/>
<stop offset="1" stop-color="#FBB500"/>
</linearGradient>
<linearGradient id="paint38_linear_132_1395" x1="78.4005" y1="46.7678" x2="78.4005" y2="64.1475" gradientUnits="userSpaceOnUse">
<stop stop-color="#FA0034"/>
<stop offset="1" stop-color="#FBB500"/>
</linearGradient>
<linearGradient id="paint39_linear_132_1395" x1="76.3249" y1="70.994" x2="76.3249" y2="83.1408" gradientUnits="userSpaceOnUse">
<stop stop-color="#FA0034"/>
<stop offset="1" stop-color="#FBB500"/>
</linearGradient>
<linearGradient id="paint40_linear_132_1395" x1="76.4865" y1="40.4478" x2="76.4865" y2="53.3509" gradientUnits="userSpaceOnUse">
<stop stop-color="#FA0034"/>
<stop offset="1" stop-color="#FBB500"/>
</linearGradient>
<linearGradient id="paint41_linear_132_1395" x1="89.17" y1="53.5487" x2="89.17" y2="76.2607" gradientUnits="userSpaceOnUse">
<stop stop-color="#FA0034"/>
<stop offset="1" stop-color="#FBB500"/>
</linearGradient>
<linearGradient id="paint42_linear_132_1395" x1="76.5483" y1="38.0422" x2="76.5483" y2="150" gradientUnits="userSpaceOnUse">
<stop stop-color="#FA0034"/>
<stop offset="1" stop-color="#FBB500"/>
</linearGradient>
<linearGradient id="paint43_linear_132_1395" x1="77.45" y1="68.0974" x2="77.45" y2="76.7872" gradientUnits="userSpaceOnUse">
<stop stop-color="#FA0034"/>
<stop offset="1" stop-color="#FBB500"/>
</linearGradient>
<linearGradient id="paint44_linear_132_1395" x1="81.785" y1="61.5141" x2="81.785" y2="76.7873" gradientUnits="userSpaceOnUse">
<stop stop-color="#FA0034"/>
<stop offset="1" stop-color="#FBB500"/>
</linearGradient>
<linearGradient id="paint45_linear_132_1395" x1="182.14" y1="90.4805" x2="182.14" y2="128.927" gradientUnits="userSpaceOnUse">
<stop stop-color="#FA0034"/>
<stop offset="1" stop-color="#FBB500"/>
</linearGradient>
<linearGradient id="paint46_linear_132_1395" x1="181.385" y1="76.2607" x2="181.385" y2="91.7971" gradientUnits="userSpaceOnUse">
<stop stop-color="#FA0034"/>
<stop offset="1" stop-color="#FBB500"/>
</linearGradient>
<linearGradient id="paint47_linear_132_1395" x1="176.972" y1="71.5207" x2="176.972" y2="98.1605" gradientUnits="userSpaceOnUse">
<stop stop-color="#FA0034"/>
<stop offset="1" stop-color="#FBB500"/>
</linearGradient>
<linearGradient id="paint48_linear_132_1395" x1="210.124" y1="46.7678" x2="210.124" y2="48.8744" gradientUnits="userSpaceOnUse">
<stop stop-color="#FA0034"/>
<stop offset="1" stop-color="#FBB500"/>
</linearGradient>
<linearGradient id="paint49_linear_132_1395" x1="181.385" y1="40.6185" x2="181.385" y2="141.566" gradientUnits="userSpaceOnUse">
<stop stop-color="#FA0034"/>
<stop offset="1" stop-color="#FBB500"/>
</linearGradient>
<linearGradient id="paint50_linear_132_1395" x1="191.179" y1="48.8744" x2="191.179" y2="64.1475" gradientUnits="userSpaceOnUse">
<stop stop-color="#FA0034"/>
<stop offset="1" stop-color="#FBB500"/>
</linearGradient>
<linearGradient id="paint51_linear_132_1395" x1="202.096" y1="46.7678" x2="202.096" y2="55.4576" gradientUnits="userSpaceOnUse">
<stop stop-color="#FA0034"/>
<stop offset="1" stop-color="#FBB500"/>
</linearGradient>
<linearGradient id="paint52_linear_132_1395" x1="214.94" y1="42.291" x2="214.94" y2="46.5043" gradientUnits="userSpaceOnUse">
<stop stop-color="#FA0034"/>
<stop offset="1" stop-color="#FBB500"/>
</linearGradient>
<linearGradient id="paint53_linear_132_1395" x1="193.599" y1="46.7678" x2="193.599" y2="64.1475" gradientUnits="userSpaceOnUse">
<stop stop-color="#FA0034"/>
<stop offset="1" stop-color="#FBB500"/>
</linearGradient>
<linearGradient id="paint54_linear_132_1395" x1="195.675" y1="70.994" x2="195.675" y2="83.1408" gradientUnits="userSpaceOnUse">
<stop stop-color="#FA0034"/>
<stop offset="1" stop-color="#FBB500"/>
</linearGradient>
<linearGradient id="paint55_linear_132_1395" x1="195.514" y1="40.4478" x2="195.514" y2="53.3509" gradientUnits="userSpaceOnUse">
<stop stop-color="#FA0034"/>
<stop offset="1" stop-color="#FBB500"/>
</linearGradient>
<linearGradient id="paint56_linear_132_1395" x1="182.83" y1="53.5487" x2="182.83" y2="76.2607" gradientUnits="userSpaceOnUse">
<stop stop-color="#FA0034"/>
<stop offset="1" stop-color="#FBB500"/>
</linearGradient>
<linearGradient id="paint57_linear_132_1395" x1="195.452" y1="38.0422" x2="195.452" y2="150" gradientUnits="userSpaceOnUse">
<stop stop-color="#FA0034"/>
<stop offset="1" stop-color="#FBB500"/>
</linearGradient>
<linearGradient id="paint58_linear_132_1395" x1="194.55" y1="68.0974" x2="194.55" y2="76.7872" gradientUnits="userSpaceOnUse">
<stop stop-color="#FA0034"/>
<stop offset="1" stop-color="#FBB500"/>
</linearGradient>
<linearGradient id="paint59_linear_132_1395" x1="190.215" y1="61.5141" x2="190.215" y2="76.7873" gradientUnits="userSpaceOnUse">
<stop stop-color="#FA0034"/>
<stop offset="1" stop-color="#FBB500"/>
</linearGradient>
<linearGradient id="paint60_linear_132_1395" x1="182.14" y1="90.4805" x2="182.14" y2="128.927" gradientUnits="userSpaceOnUse">
<stop stop-color="#FA0034"/>
<stop offset="1" stop-color="#FBB500"/>
</linearGradient>
<linearGradient id="paint61_linear_132_1395" x1="181.385" y1="76.2607" x2="181.385" y2="91.7971" gradientUnits="userSpaceOnUse">
<stop stop-color="#FA0034"/>
<stop offset="1" stop-color="#FBB500"/>
</linearGradient>
<linearGradient id="paint62_linear_132_1395" x1="176.972" y1="71.5207" x2="176.972" y2="98.1605" gradientUnits="userSpaceOnUse">
<stop stop-color="#FA0034"/>
<stop offset="1" stop-color="#FBB500"/>
</linearGradient>
<linearGradient id="paint63_linear_132_1395" x1="210.124" y1="46.7678" x2="210.124" y2="48.8744" gradientUnits="userSpaceOnUse">
<stop stop-color="#FA0034"/>
<stop offset="1" stop-color="#FBB500"/>
</linearGradient>
<linearGradient id="paint64_linear_132_1395" x1="181.385" y1="40.6185" x2="181.385" y2="141.566" gradientUnits="userSpaceOnUse">
<stop stop-color="#FA0034"/>
<stop offset="1" stop-color="#FBB500"/>
</linearGradient>
<linearGradient id="paint65_linear_132_1395" x1="191.179" y1="48.8744" x2="191.179" y2="64.1475" gradientUnits="userSpaceOnUse">
<stop stop-color="#FA0034"/>
<stop offset="1" stop-color="#FBB500"/>
</linearGradient>
<linearGradient id="paint66_linear_132_1395" x1="202.096" y1="46.7678" x2="202.096" y2="55.4576" gradientUnits="userSpaceOnUse">
<stop stop-color="#FA0034"/>
<stop offset="1" stop-color="#FBB500"/>
</linearGradient>
<linearGradient id="paint67_linear_132_1395" x1="214.94" y1="42.291" x2="214.94" y2="46.5043" gradientUnits="userSpaceOnUse">
<stop stop-color="#FA0034"/>
<stop offset="1" stop-color="#FBB500"/>
</linearGradient>
<linearGradient id="paint68_linear_132_1395" x1="193.599" y1="46.7678" x2="193.599" y2="64.1475" gradientUnits="userSpaceOnUse">
<stop stop-color="#FA0034"/>
<stop offset="1" stop-color="#FBB500"/>
</linearGradient>
<linearGradient id="paint69_linear_132_1395" x1="195.675" y1="70.994" x2="195.675" y2="83.1408" gradientUnits="userSpaceOnUse">
<stop stop-color="#FA0034"/>
<stop offset="1" stop-color="#FBB500"/>
</linearGradient>
<linearGradient id="paint70_linear_132_1395" x1="195.514" y1="40.4478" x2="195.514" y2="53.3509" gradientUnits="userSpaceOnUse">
<stop stop-color="#FA0034"/>
<stop offset="1" stop-color="#FBB500"/>
</linearGradient>
<linearGradient id="paint71_linear_132_1395" x1="182.83" y1="53.5487" x2="182.83" y2="76.2607" gradientUnits="userSpaceOnUse">
<stop stop-color="#FA0034"/>
<stop offset="1" stop-color="#FBB500"/>
</linearGradient>
<linearGradient id="paint72_linear_132_1395" x1="195.452" y1="38.0422" x2="195.452" y2="150" gradientUnits="userSpaceOnUse">
<stop stop-color="#FA0034"/>
<stop offset="1" stop-color="#FBB500"/>
</linearGradient>
<linearGradient id="paint73_linear_132_1395" x1="194.55" y1="68.0974" x2="194.55" y2="76.7872" gradientUnits="userSpaceOnUse">
<stop stop-color="#FA0034"/>
<stop offset="1" stop-color="#FBB500"/>
</linearGradient>
<linearGradient id="paint74_linear_132_1395" x1="190.215" y1="61.5141" x2="190.215" y2="76.7873" gradientUnits="userSpaceOnUse">
<stop stop-color="#FA0034"/>
<stop offset="1" stop-color="#FBB500"/>
</linearGradient>
<linearGradient id="paint75_linear_132_1395" x1="182.14" y1="90.4805" x2="182.14" y2="128.927" gradientUnits="userSpaceOnUse">
<stop stop-color="#FA0034"/>
<stop offset="1" stop-color="#FBB500"/>
</linearGradient>
<linearGradient id="paint76_linear_132_1395" x1="181.385" y1="76.2607" x2="181.385" y2="91.7971" gradientUnits="userSpaceOnUse">
<stop stop-color="#FA0034"/>
<stop offset="1" stop-color="#FBB500"/>
</linearGradient>
<linearGradient id="paint77_linear_132_1395" x1="176.972" y1="71.5207" x2="176.972" y2="98.1605" gradientUnits="userSpaceOnUse">
<stop stop-color="#FA0034"/>
<stop offset="1" stop-color="#FBB500"/>
</linearGradient>
<linearGradient id="paint78_linear_132_1395" x1="210.124" y1="46.7678" x2="210.124" y2="48.8744" gradientUnits="userSpaceOnUse">
<stop stop-color="#FA0034"/>
<stop offset="1" stop-color="#FBB500"/>
</linearGradient>
<linearGradient id="paint79_linear_132_1395" x1="181.385" y1="40.6185" x2="181.385" y2="141.566" gradientUnits="userSpaceOnUse">
<stop stop-color="#FA0034"/>
<stop offset="1" stop-color="#FBB500"/>
</linearGradient>
<linearGradient id="paint80_linear_132_1395" x1="191.179" y1="48.8744" x2="191.179" y2="64.1475" gradientUnits="userSpaceOnUse">
<stop stop-color="#FA0034"/>
<stop offset="1" stop-color="#FBB500"/>
</linearGradient>
<linearGradient id="paint81_linear_132_1395" x1="202.096" y1="46.7678" x2="202.096" y2="55.4576" gradientUnits="userSpaceOnUse">
<stop stop-color="#FA0034"/>
<stop offset="1" stop-color="#FBB500"/>
</linearGradient>
<linearGradient id="paint82_linear_132_1395" x1="214.94" y1="42.291" x2="214.94" y2="46.5043" gradientUnits="userSpaceOnUse">
<stop stop-color="#FA0034"/>
<stop offset="1" stop-color="#FBB500"/>
</linearGradient>
<linearGradient id="paint83_linear_132_1395" x1="193.599" y1="46.7678" x2="193.599" y2="64.1475" gradientUnits="userSpaceOnUse">
<stop stop-color="#FA0034"/>
<stop offset="1" stop-color="#FBB500"/>
</linearGradient>
<linearGradient id="paint84_linear_132_1395" x1="195.675" y1="70.994" x2="195.675" y2="83.1408" gradientUnits="userSpaceOnUse">
<stop stop-color="#FA0034"/>
<stop offset="1" stop-color="#FBB500"/>
</linearGradient>
<linearGradient id="paint85_linear_132_1395" x1="195.514" y1="40.4478" x2="195.514" y2="53.3509" gradientUnits="userSpaceOnUse">
<stop stop-color="#FA0034"/>
<stop offset="1" stop-color="#FBB500"/>
</linearGradient>
<linearGradient id="paint86_linear_132_1395" x1="182.83" y1="53.5487" x2="182.83" y2="76.2607" gradientUnits="userSpaceOnUse">
<stop stop-color="#FA0034"/>
<stop offset="1" stop-color="#FBB500"/>
</linearGradient>
<linearGradient id="paint87_linear_132_1395" x1="195.452" y1="38.0422" x2="195.452" y2="150" gradientUnits="userSpaceOnUse">
<stop stop-color="#FA0034"/>
<stop offset="1" stop-color="#FBB500"/>
</linearGradient>
<linearGradient id="paint88_linear_132_1395" x1="194.55" y1="68.0974" x2="194.55" y2="76.7872" gradientUnits="userSpaceOnUse">
<stop stop-color="#FA0034"/>
<stop offset="1" stop-color="#FBB500"/>
</linearGradient>
<linearGradient id="paint89_linear_132_1395" x1="190.215" y1="61.5141" x2="190.215" y2="76.7873" gradientUnits="userSpaceOnUse">
<stop stop-color="#FA0034"/>
<stop offset="1" stop-color="#FBB500"/>
</linearGradient>
</defs>
</svg>
