<svg width="42" height="42" viewBox="0 0 42 42" fill="none" xmlns="http://www.w3.org/2000/svg">
<path fill-rule="evenodd" clip-rule="evenodd" d="M39.375 21C39.375 25.8734 37.4391 30.5471 33.9931 33.9931C30.5471 37.4391 25.8734 39.375 21 39.375C16.1266 39.375 11.4529 37.4391 8.00691 33.9931C4.56093 30.5471 2.625 25.8734 2.625 21C2.625 16.1266 4.56093 11.4529 8.00691 8.00691C11.4529 4.56093 16.1266 2.625 21 2.625C25.8734 2.625 30.5471 4.56093 33.9931 8.00691C37.4391 11.4529 39.375 16.1266 39.375 21ZM0 21C0 26.5695 2.21249 31.911 6.15076 35.8492C10.089 39.7875 15.4305 42 21 42C26.5695 42 31.911 39.7875 35.8492 35.8492C39.7875 31.911 42 26.5695 42 21C42 15.4305 39.7875 10.089 35.8492 6.15076C31.911 2.21249 26.5695 0 21 0C15.4305 0 10.089 2.21249 6.15076 6.15076C2.21249 10.089 0 15.4305 0 21ZM19.6875 30.1875C19.6875 30.5356 19.8258 30.8694 20.0719 31.1156C20.3181 31.3617 20.6519 31.5 21 31.5C21.3481 31.5 21.6819 31.3617 21.9281 31.1156C22.1742 30.8694 22.3125 30.5356 22.3125 30.1875V14.9809L27.9457 20.6167C28.1922 20.8632 28.5265 21.0017 28.875 21.0017C29.2235 21.0017 29.5578 20.8632 29.8043 20.6167C30.0507 20.3703 30.1892 20.036 30.1892 19.6875C30.1892 19.339 30.0507 19.0047 29.8043 18.7582L21.9293 10.8833C21.8073 10.761 21.6625 10.664 21.503 10.5979C21.3436 10.5317 21.1726 10.4977 21 10.4977C20.8274 10.4977 20.6564 10.5317 20.497 10.5979C20.3375 10.664 20.1927 10.761 20.0707 10.8833L12.1957 18.7582C11.9493 19.0047 11.8108 19.339 11.8108 19.6875C11.8108 20.036 11.9493 20.3703 12.1957 20.6167C12.4422 20.8632 12.7765 21.0017 13.125 21.0017C13.4735 21.0017 13.8078 20.8632 14.0543 20.6167L19.6875 14.9809V30.1875Z" fill="white" fill-opacity="0.7"/>
</svg>
